<?xml version="1.0" encoding="utf-8"?>
<!-- Generator: Adobe Illustrator 21.0.0, SVG Export Plug-In . SVG Version: 6.00 Build 0)  -->
<svg version="1.1" id="图层_1" xmlns="http://www.w3.org/2000/svg" xmlns:xlink="http://www.w3.org/1999/xlink" x="0px" y="0px"
	 viewBox="0 0 1024 1024" style="enable-background:new 0 0 1024 1024;" xml:space="preserve">
<path d="M917.2,454.2c-4.3,5.9-11,9-17.9,9c-4.5,0-9.1-1.4-13-4.3L496,173.7L105.7,459c-9.8,7.2-23.7,5.1-30.9-4.8
	c-7.2-9.8-5.1-23.6,4.8-30.9l403.3-294.9c7.8-5.7,18.3-5.7,26.1,0l403.3,294.9C922.3,430.6,924.4,444.4,917.2,454.2z M186.5,464
	c12.2,0,22.1,9.9,22.1,22.1v351.4h176.9V645.7c0-60.9,49.6-110.4,110.6-110.4c61,0,110.6,49.5,110.6,110.4v191.8h176.9V486.1
	c0-12.2,9.9-22.1,22.1-22.1s22.1,9.9,22.1,22.1v373.5c0,12.2-9.9,22.1-22.1,22.1H584.4c-11.6,0-21.2-9-22-20.4
	c-0.1-0.5-0.1-1.1-0.1-1.7V645.7c0-36.5-29.8-66.2-66.3-66.2c-36.6,0-66.3,29.7-66.3,66.2v213.9c0,0.6,0,1.2-0.1,1.7
	c-0.9,11.4-10.4,20.4-22,20.4H186.5c-12.2,0-22.1-9.9-22.1-22.1V486.1C164.4,473.9,174.3,464,186.5,464z"/>
</svg>
