<?xml version="1.0" encoding="utf-8"?>
<!-- Generator: Adobe Illustrator 21.0.0, SVG Export Plug-In . SVG Version: 6.00 Build 0)  -->
<svg version="1.0" id="图层_1" xmlns="http://www.w3.org/2000/svg" xmlns:xlink="http://www.w3.org/1999/xlink" x="0px" y="0px"
	 viewBox="0 0 1024 1024" style="enable-background:new 0 0 1024 1024;" xml:space="preserve">
<g>
	<path d="M923.9,419.4c-5.5,16.3-15.9,29.9-24,44.7c-7.5,13.8-15.6,27.3-23.5,40.9c-6.6,11.4-17.7,15.4-30.1,10.8
		c-9.9-3.7-19.7-7.5-29.5-11.3c-2.3-0.9-3.9-0.7-5.9,0.9c-15.1,11.9-31.5,21.4-49.3,28.5c-2.1,0.8-3.3,1.8-3.6,4.3
		c-1.5,10.7-3.5,21.3-5.1,32c-1.8,11.8-11.2,20.2-23.2,20.2c-28.9,0-57.8-0.3-86.7,0.2c-11.6,0.2-24.1-6.3-26.1-22.9
		c-1.2-10.1-3-20.1-4.8-30.1c-0.2-1.2-1.5-2.7-2.7-3.2c-18.4-7.5-35.4-17.3-51-29.5c-1.1-0.8-3.4-0.8-4.8-0.3
		c-9.9,3.6-19.7,7.5-29.6,11.2c-12.5,4.7-23.7,0.6-30.4-11c-14.4-25-28.9-50-43.3-75c-6.5-11.4-4.5-23.1,5.7-31.5
		c8.1-6.7,16.3-13.4,24.6-20c2-1.6,2.6-3.2,2.2-5.6c-2.8-18.9-2.8-37.7,0-56.6c0.4-2.5-0.2-4.3-2.4-5.9
		c-8.2-6.4-16.3-13.1-24.3-19.7c-10.2-8.3-12.4-20-5.9-31.4c14.5-25.2,29.1-50.4,43.7-75.6c6.4-11,18-15.1,29.9-10.5
		c9.9,3.8,19.7,7.5,29.5,11.4c2.3,0.9,3.9,0.8,5.9-0.8c15-11.9,31.5-21.4,49.3-28.6c2.3-0.9,3.4-2.1,3.7-4.6
		c1.5-10.6,3.4-21.1,5.1-31.6c1.7-10.5,7.8-17.1,18.1-19.8c0.5-0.1,0.9-0.5,1.3-0.7c32.3,0,64.5,0,96.8,0c0.4,0.3,0.8,0.7,1.3,0.8
		c10.4,2.8,16.4,9.6,18,20.2c1.6,10.5,3.3,21.1,5.3,31.5c0.3,1.5,1.8,3.4,3.2,4c17.7,7.4,34.2,16.7,49.3,28.6
		c2.2,1.8,4.1,1.9,6.6,0.9c9.6-3.8,19.2-7.4,28.8-11.1c12.5-4.8,23.8-0.8,30.4,10.7c4.8,8.3,9.9,16.6,14.4,25.1
		c10.8,20.2,24.6,38.8,33.1,60.4c0,0.5,0,1,0,1.5c-0.5,10.7-6.6,17.9-14.9,23.9c-6.8,4.9-13,10.6-19.6,15.7
		c-1.9,1.5-2.4,2.9-2.1,5.2c0.7,5.6,1.6,11.3,1.6,16.9c-0.2,13.6-1,27.2-1.4,40.8c0,1.6,0.8,3.7,2,4.7c6.4,5.5,12.9,11.1,19.8,16.1
		c8.2,6,14.1,13.1,14.7,23.6C923.9,418.4,923.9,418.9,923.9,419.4z M500.3,422.8c7.9,13.7,15.6,27.1,23.5,40.4
		c0.5,0.8,2.7,1.3,3.7,0.9c8.4-3,16.6-6.4,24.9-9.4c9.3-3.4,17.8-2,25.1,4.8c17.9,16.5,38.4,28.4,61.7,35.7
		c9.4,2.9,14.8,9.5,16.5,19.1c1.5,8.5,2.8,17,4,25.6c0.4,2.9,1.5,3.8,4.4,3.8c13.9-0.1,27.9-0.1,41.8-0.1c1.1,0,2.3-0.1,3.6-0.2
		c1.3-8.4,3-16.5,3.9-24.6c1.4-12.8,7.8-20.8,20.4-24.6c22-6.7,41.3-18.5,58.2-34.1c7.5-6.9,16.1-8.7,25.7-5.1
		c8.2,3.1,16.4,6.2,24.5,9.4c1.9,0.7,3.2,0.8,4.4-1.3c7.1-12.6,14.3-25,21.6-37.5c1.2-2,0.8-3.1-0.9-4.5c-6.6-5.2-13-10.6-19.6-15.8
		c-8.8-6.9-11.5-15.6-9.1-26.4c5.1-23,5-46-0.1-69c-2.3-10.3,0.4-18.8,8.7-25.5c6.5-5.2,13-10.6,19.6-15.8c2.1-1.6,2.7-2.9,1.2-5.4
		c-7.2-12.2-14.3-24.5-21.3-36.8c-1.3-2.2-2.4-2.4-4.6-1.5c-8,3.2-16.1,6.2-24.1,9.3c-9.7,3.7-18.4,2-26.1-5.1
		c-17.5-16.1-37.7-27.7-60.3-35c-3.9-1.3-7.7-3.6-10.8-6.3c-5.2-4.4-6.3-11-7.2-17.4c-1.2-8.2-2.6-16.4-4-24.7c-16.5,0-32.6,0-49,0
		c-1.3,8-2.9,15.8-3.7,23.7c-1.3,13.6-7.9,21.9-21.3,26c-21.6,6.6-40.6,18.3-57.2,33.6c-7.8,7.2-16.5,8.9-26.4,5.1
		c-7.6-2.9-15.2-5.7-22.7-8.8c-3.1-1.3-5-1.2-6.6,2.2c-2.4,5-5.5,9.6-8.2,14.4c-4.6,8-9.2,16-13.9,24.2c7.7,6.3,15.1,12.3,22.5,18.3
		c8.1,6.6,10.9,15,8.6,25.1c-5.1,23-5.2,46-0.3,69c0.9,4.2,0.8,8.7,0.2,12.9c-1,7-6.2,11.3-11.4,15.4
		C513.4,412.1,506.9,417.4,500.3,422.8z"/>
	<path d="M98,571.9c16.1-28.5,32.1-57.2,48.5-85.6c5.7-9.8,17.3-13.2,28.4-9.1c10,3.7,20,7.5,29.9,11.5c2.5,1,4.2,0.7,6.2-1
		c15-11.8,31.4-21.2,49-28.3c2.5-1,3.5-2.4,3.8-5c1.5-10.4,3.2-20.9,5.1-31.2c2.3-12.8,10.9-20.4,23.8-20.5
		c29.3-0.2,58.6-0.2,87.8,0c13.1,0.1,21.8,8.2,23.9,21.3c2.6,16.5,5.6,33,7.7,49.6c1.6,12.8-7.6,23.9-20.1,25.4
		c-12.9,1.6-24.1-7.2-26.2-20.2c-1.3-8.6-2.8-17.3-4.2-25.9c-0.4-2.5-1.3-3.4-4-3.4c-14.1,0.1-28.1,0.1-42.2,0c-2.8,0-3.8,1-4.2,3.7
		c-1.3,9.2-2.7,18.3-4.5,27.4c-1.7,9-7.4,14.9-16.1,17.6c-23.2,7.2-43.6,19-61.4,35.4c-7.6,7-16.3,8.4-25.8,4.9
		c-8.2-3-16.3-6.3-24.6-9.3c-1-0.4-3.2,0.1-3.7,0.9c-7.9,13.3-15.6,26.7-23.5,40.4c7.6,6.2,15.1,12.3,22.5,18.3
		c8,6.5,10.8,14.7,8.7,24.8c-1,4.9-1.8,9.9-2.5,14.8c-2.8,19-1.4,37.7,2.6,56.4c2,9.2-0.7,17.1-7.9,23.2
		c-7.6,6.4-15.4,12.6-23.4,19.1c8.1,14.1,16.2,28.1,24.5,42.4c6.6-2.5,13-5,19.5-7.4c4.3-1.6,8.7-3.4,13.1-4.4
		c7.6-1.6,14.4,0.6,20,5.8c18,16.7,38.6,28.6,62,35.9c9.5,3,14.9,9.8,16.5,19.5c1.4,8.5,2.7,17,4,25.6c0.3,1.7,0.5,3.3,2.9,3.3
		c15.5,0,30.9,0,46.8,0c1.4-8.6,2.9-16.9,4-25.3c1.2-8.9,4.2-16.5,12.4-21c2.7-1.5,5.7-2.4,8.6-3.3c21.2-7,40.1-18.1,56.5-33.3
		c8.4-7.8,17.6-9.5,28.1-5.3c8.5,3.4,17,6.5,25.9,10c1.6-2.7,3.2-5.3,4.7-8c6-10.4,11.9-20.8,18-31.1c1.6-2.7,1.2-4.1-1.2-6
		c-6.4-5-12.6-10.2-19-15.3c-8.5-6.8-11.4-15.4-9.1-26.1c5.2-23.2,5.1-46.5-0.2-69.7c-2.4-10.5,1.7-20.6,10.3-25.8
		c8.7-5.3,19.5-4.5,27.4,2c4.5,3.7,6.8,8.5,8.1,14.1c3.9,17.3,5.4,34.9,4.7,52.6c-0.3,7.2-1.2,14.4-1.6,21.6
		c-0.1,1.5,0.7,3.5,1.8,4.4c8.1,6.8,16.4,13.4,24.5,20.1c10.4,8.5,12.7,20.1,6,31.7c-14.6,25.5-29.3,50.9-44.1,76.3
		c-5.8,9.9-17.4,14-28.5,10c-10.2-3.7-20.2-7.6-30.3-11.6c-2.4-1-4.1-0.9-6.2,0.8c-14.7,11.7-30.8,21.1-48.3,28
		c-3.3,1.3-4.4,3.2-4.9,6.4c-1.5,9.8-3.2,19.6-4.6,29.4c-1.4,10.2-6.9,17-16.6,20.3c-0.4,0.2-0.8,0.6-1.2,0.9c-33.3,0-66.6,0-99.8,0
		c-0.5-0.3-1.1-0.7-1.6-0.9c-9.1-3.1-14.6-9.3-16.2-18.9c-1.8-10.7-3.6-21.3-5.2-32c-0.3-2.3-1.2-3.6-3.4-4.5
		c-18-7.3-34.7-16.9-50.1-28.8c-1.2-0.9-3.6-1.2-5.1-0.7c-9.9,3.6-19.7,7.5-29.6,11.2c-12.5,4.7-23.7,0.8-30.4-10.8
		c-6.8-11.7-13.7-23.3-20.3-35.1c-9.1-16.3-18-32.6-27-49c0-2.3,0-4.6,0-7c1.9-7.9,6.6-13.6,13.1-18.5c7.2-5.4,14-11.4,21.1-17
		c2-1.6,2.6-3.2,2.3-5.6c-2.9-19-2.8-38,0-57c0.3-2.3-0.2-3.8-2.1-5.3c-6.4-5-12.5-10.4-19-15.3c-6.9-5.3-13.4-10.9-15.4-20
		C98,577.1,98,574.5,98,571.9z"/>
	<path d="M243.7,648.2c0.1-51.2,41.9-92.6,93.4-92.4c50.6,0.2,91.6,40.8,92.5,91c1,53.1-41.3,93.7-90.5,94.9
		C285.6,743,243.2,699.7,243.7,648.2z M336.8,602.7c-25.5,0-46.2,20.5-46.3,45.7c0,25.7,20.5,46.5,45.9,46.6
		c25.5,0,46.3-20.7,46.4-46.1C382.8,623.5,362.1,602.7,336.8,602.7z"/>
	<path d="M684.9,437.3c-51.5-0.1-93-41.5-93-92.9c0.1-51.6,41.8-93.2,93.3-93c51.2,0.2,92.7,41.6,92.9,92.8
		C778.3,395.6,736.5,437.3,684.9,437.3z M685.3,298.2c-25.3-0.1-46.3,20.5-46.5,45.6c-0.2,25.7,20.3,46.5,46,46.9
		c24.7,0.4,46.1-20.9,46.4-45.9C731.5,319.6,710.6,298.4,685.3,298.2z"/>
</g>
</svg>
