<?xml version="1.0" encoding="utf-8"?>
<!-- Generator: Adobe Illustrator 21.0.0, SVG Export Plug-In . SVG Version: 6.00 Build 0)  -->
<svg version="1.0" id="图层_1" xmlns="http://www.w3.org/2000/svg" xmlns:xlink="http://www.w3.org/1999/xlink" x="0px" y="0px"
	 viewBox="0 0 1024 1024" style="enable-background:new 0 0 1024 1024;" xml:space="preserve">
<style type="text/css">
	.st0{fill:#555555;}
</style>
<path id="icon_folder_otherinformation" class="st0" d="M802.2,99.6h-475c-30.4-1-55.9,22.8-57.1,53.2v45.5H205
	c-21.7-0.7-39.9,16.3-40.7,38v655.4c0.8,21.7,19,38.7,40.7,38h507.7c21.7,0.7,39.9-16.3,40.7-38v-60.7h48.7
	c30.4,1,55.9-22.8,57.1-53.2V152.8C858.1,122.4,832.6,98.6,802.2,99.6z M712.3,891.2H205.4V236.6h327.2v124.3
	c0.9,24.8,21.7,44.2,46.5,43.4h133.2L712.3,891.2L712.3,891.2z M573.7,263.6l109.6,102.3H579c-2.9,0.1-5.3-2.2-5.4-5.1L573.7,263.6
	L573.7,263.6z M802.2,792.5h-48.7V385c0-0.2,0-0.3,0-0.4c-0.2-5-2.3-9.7-6-13.1L567.8,203.8l0,0c-4-3.6-9.1-5.6-14.5-5.6H311.2
	v-45.5c0.3-8.5,7.4-15.2,16-14.9h475c8.5-0.3,15.7,6.4,16,14.9v624.9l0,0C817.8,786.2,810.7,792.8,802.2,792.5z"/>
</svg>
