<?xml version="1.0" encoding="utf-8"?>
<!-- Generator: Adobe Illustrator 21.0.0, SVG Export Plug-In . SVG Version: 6.00 Build 0)  -->
<svg version="1.0" id="图层_1" xmlns="http://www.w3.org/2000/svg" xmlns:xlink="http://www.w3.org/1999/xlink" x="0px" y="0px"
	 viewBox="0 0 1024 1024" style="enable-background:new 0 0 1024 1024;" xml:space="preserve">
<path id="icon_listoverview" d="M788.1,125H649.9c-0.9-16-14.6-28.3-30.7-27.6H404.3c-16.1-0.8-29.8,11.5-30.7,27.6H235.4
	c-23.8-1.6-44.4,16.3-46,40.1c0,0.4-0.1,0.9-0.1,1.3v717.8c0.9,23.8,20.9,42.4,44.7,41.5c0.4,0,0.9,0,1.3-0.1h552.7
	c23.8,1.6,44.4-16.3,46-40.1c0-0.4,0.1-0.9,0.1-1.3V166.4c-0.9-23.8-20.9-42.4-44.7-41.5C789.1,124.9,788.6,125,788.1,125z
	 M404.3,235.5h214.9c16.1,0.8,29.8-11.5,30.7-27.6h92.1v635H281.5v-635h92.1C374.5,223.9,388.2,236.3,404.3,235.5z M404.3,125h214.9
	v82.8H404.3V125z M803.5,884.3c0,7.6-6.1,13.9-13.8,13.9c-0.5,0-1.1,0-1.6-0.1H235.4c-7.6,0.8-14.4-4.6-15.3-12.2
	c-0.1-0.5-0.1-1.1-0.1-1.6V166.4c0-7.6,6.1-13.9,13.8-13.9c0.5,0,1.1,0,1.6,0.1h138.2v27.6h-92.1c-16.1-0.8-29.8,11.6-30.7,27.6v635
	c0.9,16.1,14.6,28.4,30.7,27.6h460.6c16.1,0.8,29.8-11.6,30.7-27.6v-635c-0.9-16.1-14.6-28.4-30.7-27.6h-92.1v-27.6h138.2
	c7.6-0.8,14.4,4.6,15.3,12.2c0.1,0.5,0.1,1.1,0.1,1.6L803.5,884.3L803.5,884.3L803.5,884.3z M312.2,290.7v82.8
	c0,7.6,6.1,13.9,13.8,13.9c0.5,0,1.1,0,1.6-0.1h153.5c7.6,0.8,14.4-4.6,15.3-12.2c0.1-0.5,0.1-1.1,0.1-1.6v-82.8
	c0-7.6-6.1-13.9-13.8-13.9c-0.5,0-1.1,0-1.6,0.1H327.5c-7.6-0.8-14.4,4.7-15.2,12.3C312.2,289.7,312.2,290.2,312.2,290.7
	L312.2,290.7z M342.9,304.5h122.8v55.2H342.9V304.5z M312.2,456.4c0,7.6,6.1,13.9,13.8,13.9c0.5,0,1.1,0,1.6-0.1h199.6
	c7.6,0.8,14.5-4.6,15.3-12.3c0.8-7.6-4.6-14.5-12.3-15.3c-1-0.1-2.1-0.1-3.1,0H327.5c-7.6-0.8-14.4,4.7-15.2,12.3
	C312.2,455.3,312.2,455.8,312.2,456.4L312.2,456.4z M327.6,525.4h168.9c7.6,0.8,14.4-4.8,15.2-12.4c0.8-7.6-4.8-14.4-12.4-15.2
	c-0.9-0.1-1.9-0.1-2.8,0h-169c-7.6-1-14.6,4.3-15.6,11.9c-1,7.6,4.3,14.6,11.9,15.6C325,525.5,326.3,525.5,327.6,525.4L327.6,525.4z
	 M327.6,580.6h153.5c7.6,0.8,14.5-4.7,15.3-12.3c0.8-7.6-4.7-14.5-12.3-15.3c-1-0.1-2-0.1-2.9,0H327.5c-7.6-1-14.6,4.4-15.5,12
	s4.4,14.6,12,15.5C325.1,580.7,326.3,580.7,327.6,580.6L327.6,580.6z M606.1,574.1c5.5,7.3,15.8,8.7,23,3.2c0.9-0.7,1.7-1.4,2.4-2.2
	l76.8-96.6c4.7-5.1,4.3-13-0.8-17.7c-0.7-0.6-1.4-1.2-2.3-1.6c-6.8-4.9-16.2-3.7-21.5,2.8L619,543.5l-33.5-40.1
	c-5.7-5.7-14.5-6.8-21.5-2.8c-6.2,4.5-7.6,13.1-3.1,19.3c0,0,0,0,0,0.1L606.1,574.1z M527.2,635.9H327.5
	c-7.6-0.8-14.5,4.7-15.3,12.3c-0.8,7.6,4.7,14.5,12.3,15.3c1,0.1,2,0.1,2.9,0h199.6c7.6,0.6,14.3-5.1,14.9-12.7
	c0.6-7.6-5.1-14.3-12.7-14.9C528.6,635.7,527.8,635.7,527.2,635.9L527.2,635.9z M496.5,691.1h-169c-7.6-0.8-14.5,4.6-15.3,12.3
	c-0.8,7.6,4.6,14.5,12.3,15.3c1,0.1,2.1,0.1,3.1,0h168.9c7.7,0.4,14.2-5.6,14.5-13.2c0.4-7.7-5.6-14.2-13.2-14.5c-0.4,0-0.8,0-1.3,0
	L496.5,691.1z M481.1,746.3H327.5c-7.6-0.8-14.5,4.6-15.3,12.3c-0.8,7.6,4.6,14.5,12.3,15.3c1,0.1,2.1,0.1,3.1,0h153.6
	c7.6,0.6,14.4-5,15-12.7c0.6-7.6-5-14.4-12.7-15C482.6,746.1,481.8,746.1,481.1,746.3L481.1,746.3z M606.1,767.3
	c5.5,7.3,15.8,8.7,23,3.2c0.9-0.7,1.7-1.4,2.4-2.2l76.8-96.6c4.7-5.1,4.3-13-0.8-17.7c-0.7-0.6-1.4-1.2-2.3-1.6
	c-6.8-4.9-16.2-3.7-21.5,2.8L619,736.7l-33.5-40.1c-5.7-5.7-14.5-6.8-21.5-2.8c-6.2,4.5-7.6,13.1-3.1,19.3c0,0,0,0,0,0.1
	L606.1,767.3z"/>
</svg>
