<?xml version="1.0" encoding="utf-8"?>
<!-- Generator: Adobe Illustrator 21.0.0, SVG Export Plug-In . SVG Version: 6.00 Build 0)  -->
<svg version="1.0" id="图层_1" xmlns="http://www.w3.org/2000/svg" xmlns:xlink="http://www.w3.org/1999/xlink" x="0px" y="0px"
	 viewBox="0 0 1024 1024" style="enable-background:new 0 0 1024 1024;" xml:space="preserve">
<path id="icon_settings_cube" d="M861.5,545.3V251.7c37.6-5.5,65.2-38.2,64.4-76.2c0-42.7-34.7-77.4-77.4-77.4
	c-38-0.8-70.6,26.8-76.2,64.4H478.9c-5.5-37.6-38.2-65.2-76.2-64.4c-42.7,0-77.4,34.7-77.4,77.4c0,16.1,5,31.7,14.4,44.8
	L221.1,338.8c-34.8-24.8-83-16.7-107.8,18.1c-9.4,13.1-14.4,28.8-14.4,44.9c-0.8,38,26.7,70.6,64.3,76.2v293.6
	c-37.6,5.6-65.1,38.2-64.3,76.2c0.1,42.7,34.7,77.3,77.4,77.3c38,0.8,70.7-26.9,76.3-64.5h293.5c5.5,37.6,38.1,65.2,76.2,64.5
	c42.7,0.1,77.3-34.4,77.5-77.1c0-15.3-4.5-30.3-13-43.1L806,685.8c12.6,8.5,27.5,13,42.8,13c42.7-0.1,77.2-34.7,77.2-77.4
	C926.7,583.4,899.1,550.8,861.5,545.3z M357.8,238.5c9.3,6.9,20.2,11.5,31.7,13.2v137H252.6c-1.7-11.5-6.3-22.4-13.3-31.7
	L357.8,238.5z M223,786.3c-9.9-7.6-21.5-12.6-33.9-14.6V478c32.5-5.6,57.9-31,63.5-63.5h136.9v130.7c-37.6,5.6-65.1,38.2-64.3,76.2
	c0.1,16.9,5.7,33.3,15.9,46.6L223,786.3z M609.4,771.6c-32.3,5.5-57.7,30.8-63.2,63.1H252.6c-1.4-10.8-5.5-21-11.9-29.8L360,685.9
	c12.7,8.5,27.5,13,42.8,12.9c38,0.8,70.6-26.8,76.2-64.4h130.5L609.4,771.6L609.4,771.6z M609.4,608.5H478.9
	c-5.6-32.4-31.1-57.7-63.5-63.2V414.6h130.8c5.5,32.4,30.8,57.9,63.2,63.5L609.4,608.5L609.4,608.5L609.4,608.5z M546.1,388.7H415.4
	v-137c32.5-5.6,57.9-31,63.5-63.4h293.5c1.8,11.5,6.3,22.5,13.3,31.9L667.1,338.8c-13.1-9.4-28.7-14.4-44.8-14.5
	C584.3,323.5,551.7,351.1,546.1,388.7L546.1,388.7z M669,786.3c-9.8-7.6-21.4-12.6-33.7-14.6V634.3h137.2
	c2.1,12.3,7.1,23.9,14.7,33.8L669,786.3z M835.6,545.3c-32.4,5.5-57.7,30.9-63.2,63.2H635.3V478.1c37.6-5.5,65.2-38.2,64.4-76.2
	c0-16-5-31.7-14.4-44.7l118.6-118.6c9.3,7,20.2,11.5,31.7,13.2L835.6,545.3L835.6,545.3z"/>
</svg>
