<?xml version="1.0" encoding="utf-8"?>
<!-- Generator: Adobe Illustrator 21.0.0, SVG Export Plug-In . SVG Version: 6.00 Build 0)  -->
<svg version="1.0" id="图层_1" xmlns="http://www.w3.org/2000/svg" xmlns:xlink="http://www.w3.org/1999/xlink" x="0px" y="0px"
	 viewBox="0 0 1024 1024" style="enable-background:new 0 0 1024 1024;" xml:space="preserve">
<path id="icon_settings_user" d="M513,98.2c-137.5,0-249,139.4-249,311.3s111.5,311.3,249,311.3s249-139.4,249-311.3
	S650.5,98.2,513,98.2z M513,679.2c-114.5,0-207.5-121.1-207.5-269.8s93-269.8,207.5-269.8s207.5,121.1,207.5,269.8
	S627.5,679.2,513,679.2z M694.3,684.6c-11,10.7-22.8,20.5-35.3,29.4c39.4,18.4,74.2,33.7,103.8,46.6c110,48,123.8,57.4,123.8,84.6
	c-1.4,22.3-19.2,40.1-41.5,41.5H181c-22.3-1.4-40.1-19.2-41.5-41.5c0-27.2,13.8-36.7,123.8-84.6c29.6-12.9,64.3-28.2,103.8-46.6
	c-12.5-8.9-24.3-18.7-35.3-29.4C158.9,763.7,98,774.3,98,845.2c1.5,45.2,37.8,81.5,83,83h664.1c45.2-1.5,81.5-37.8,83-83
	C928.1,774.3,867.2,763.7,694.3,684.6z"/>
</svg>
