<?xml version="1.0" encoding="utf-8"?>
<!-- Generator: Adobe Illustrator 21.0.0, SVG Export Plug-In . SVG Version: 6.00 Build 0)  -->
<svg version="1.0" id="图层_1" xmlns="http://www.w3.org/2000/svg" xmlns:xlink="http://www.w3.org/1999/xlink" x="0px" y="0px"
	 viewBox="0 0 1024 1024" style="enable-background:new 0 0 1024 1024;" xml:space="preserve">
<path id="icon_home_listonclipboard" d="M808.2,182.2h-100c-11.5-0.4-21.1,8.6-21.4,20.1c0,1.1,0,2.3,0.2,3.4
	c0.2,11.3,9.6,20.3,20.9,20.1c0.1,0,0.3,0,0.4,0h77.7v660.3H235.1V225.8h69.7c11.3,0.4,20.8-8.4,21.3-19.7c0-0.1,0-0.2,0-0.3
	c1.5-11.4-6.5-21.8-17.8-23.4c-1.1-0.2-2.3-0.2-3.5-0.2h-92c-12.2-0.1-22.2,9.7-22.4,21.9v703.7c0.3,12.1,10.2,21.8,22.3,21.8h595.4
	c12.1,0,22-9.6,22.3-21.8V204.1C830.3,191.9,820.4,182.2,808.2,182.2z M265.8,247.5v584.1c0.1,2,0.7,3.9,1.8,5.5
	c2,3.3,5.5,5.4,9.4,5.5h468.5c2.6,0,5.2-0.9,7.1-2.7l0.7-0.5c0.2-0.2,0.4-0.5,0.5-0.7c1.8-1.8,2.8-4.3,2.8-6.9V247.6
	c-0.1-6.1-5.1-11-11.2-10.9h-66.9v-54.4c-0.1-6.1-5.1-11-11.2-10.9h-40.3c-9.4-48.8-67.8-71.1-114.4-71.7
	c-46.6-0.6-104.9,23.6-114.4,71.7h-39.9c-6.1,0-11.1,4.9-11.2,10.9v54.4h-70.2C271,236.5,265.9,241.4,265.8,247.5L265.8,247.5z
	 M369.4,193.2h37.2c0.7,0.1,1.4,0.1,2.2,0h207.6c0.7,0.1,1.4,0.1,2.2,0h37.6V282H369.5C369.4,252.4,369.4,222.8,369.4,193.2z
	 M288.1,435.6V258.4h59v34.4c0.1,6.1,5.1,11,11.2,10.9h309c2.6,0.1,5.1-0.9,7.1-2.7c0.3-0.2,0.5-0.3,0.8-0.5
	c0.2-0.2,0.4-0.5,0.5-0.7c1.8-1.9,2.8-4.4,2.8-7v-34.5h55.8v562.3H288.1V435.6z M358.8,347.4c10,0.2,17.8,8.5,17.6,18.5
	c-0.2,10-8.5,17.8-18.5,17.6c-9.8-0.2-17.6-8.2-17.6-18c0.1-10.1,8.3-18.2,18.4-18.1C358.7,347.4,358.7,347.4,358.8,347.4
	L358.8,347.4z M422,375.2h200.8c3,0,5.5-2.4,5.5-5.5c0-3-2.4-5.5-5.5-5.5H422c-3,0.3-5.2,3.1-4.8,6.1
	C417.5,372.9,419.5,374.9,422,375.2L422,375.2z M358.8,412.7c10,0.2,17.8,8.5,17.6,18.5c-0.2,10-8.5,17.8-18.5,17.6
	c-9.8-0.2-17.6-8.2-17.6-18c0.1-10.1,8.3-18.2,18.4-18.1C358.7,412.7,358.7,412.7,358.8,412.7L358.8,412.7z M422,440.5h200.8
	c3,0,5.5-2.4,5.5-5.5c0-3-2.4-5.5-5.5-5.5H422c-3,0.3-5.2,3.1-4.8,6.1C417.5,438.2,419.5,440.2,422,440.5L422,440.5z M358.8,478.1
	c10,0.2,17.8,8.5,17.6,18.5c-0.2,10-8.5,17.8-18.5,17.6c-9.8-0.2-17.6-8.2-17.6-18c0.1-10.1,8.3-18.2,18.4-18.1
	C358.7,478,358.7,478,358.8,478.1L358.8,478.1z M422,505.9h200.8c3,0,5.5-2.4,5.5-5.5c0-3-2.4-5.5-5.5-5.5H422
	c-3,0.3-5.2,3.1-4.8,6.1C417.5,503.5,419.5,505.5,422,505.9L422,505.9z M358.8,543.4c10,0.2,17.8,8.5,17.6,18.5
	c-0.2,10-8.5,17.8-18.5,17.6c-9.8-0.2-17.6-8.2-17.6-18C340.4,551.3,348.6,543.2,358.8,543.4C358.7,543.3,358.7,543.3,358.8,543.4
	L358.8,543.4z M422,571.2h200.8c3,0,5.5-2.4,5.5-5.5c0-3-2.4-5.5-5.5-5.5H422c-3,0.3-5.2,3.1-4.8,6.1
	C417.5,568.8,419.5,570.8,422,571.2L422,571.2z M358.8,608.7c10,0.2,17.8,8.5,17.6,18.5c-0.2,10-8.5,17.8-18.5,17.6
	c-9.8-0.2-17.6-8.2-17.6-18c0.1-10.1,8.3-18.2,18.4-18.1C358.7,608.6,358.7,608.6,358.8,608.7L358.8,608.7z M422,636.5h200.8
	c3,0,5.4-2.5,5.4-5.5c0-3-2.4-5.4-5.4-5.4H422c-3,0.3-5.2,3.1-4.8,6.1C417.5,634.1,419.5,636.1,422,636.5L422,636.5z M358.8,674
	c10,0.2,17.8,8.5,17.6,18.5c-0.2,10-8.5,17.8-18.5,17.6c-9.8-0.2-17.6-8.2-17.6-18c0.1-10.1,8.3-18.2,18.4-18.1
	C358.7,673.9,358.7,673.9,358.8,674L358.8,674z M422,701.8h200.8c3,0,5.4-2.5,5.4-5.5c0-3-2.4-5.4-5.4-5.4H422
	c-3,0.3-5.2,3.1-4.8,6.1C417.5,699.4,419.5,701.4,422,701.8L422,701.8z"/>
</svg>
