<?xml version="1.0" encoding="utf-8"?>
<!-- Generator: Adobe Illustrator 21.0.0, SVG Export Plug-In . SVG Version: 6.00 Build 0)  -->
<svg version="1.0" id="图层_1" xmlns="http://www.w3.org/2000/svg" xmlns:xlink="http://www.w3.org/1999/xlink" x="0px" y="0px"
	 viewBox="0 0 1024 1024" style="enable-background:new 0 0 1024 1024;" xml:space="preserve">
<path id="icon_message" d="M513,822.9c-26-0.1-51.9-2.2-77.6-6.5L253.6,926.5V743.1C158.8,676.6,98,574.6,98,460.1
	C98,259.8,283.8,97.4,513,97.4s415,162.4,415,362.8C928,660.4,742.2,822.9,513,822.9z M513,149.2c-200.6,0-363.1,139.2-363.1,310.9
	c0,105.4,61.4,198.3,155,254.6l-1.7,120.2l122.1-73.3c28.8,6.2,58.2,9.4,87.7,9.5c200.6,0,363.1-139.2,363.1-310.9
	S713.5,149.2,513,149.2L513,149.2z M720.5,511.9c-28.6,0-51.8-23.3-51.8-51.9c0-28.6,23.3-51.8,51.9-51.8
	c28.6,0,51.8,23.2,51.8,51.8C772.4,488.8,749.1,512,720.5,511.9L720.5,511.9z M513,511.9c-28.6,0-51.8-23.3-51.8-51.9
	c0-28.6,23.3-51.8,51.9-51.8c28.6,0,51.8,23.2,51.8,51.8C564.9,488.8,541.6,512,513,511.9L513,511.9z M305.5,511.9
	c-28.6,0-51.8-23.3-51.8-51.9c0-28.6,23.3-51.8,51.9-51.8c28.6,0,51.8,23.2,51.8,51.8C357.4,488.7,334.2,512,305.5,511.9
	C305.5,512,305.5,512,305.5,511.9L305.5,511.9z"/>
</svg>
