<?xml version="1.0" encoding="utf-8"?>
<!-- Generator: Adobe Illustrator 21.0.0, SVG Export Plug-In . SVG Version: 6.00 Build 0)  -->
<svg version="1.0" id="图层_1" xmlns="http://www.w3.org/2000/svg" xmlns:xlink="http://www.w3.org/1999/xlink" x="0px" y="0px"
	 viewBox="0 0 1024 1024" style="enable-background:new 0 0 1024 1024;" xml:space="preserve">
<path id="icon_home_matrix" d="M304.3,334.3c2.8,0.1,5.1-2.1,5.1-4.9V127.8c-0.1-2.8-2.4-4.9-5.1-4.8c0,0,0,0,0,0H101.9
	c-2.8-0.1-5.1,2.1-5.2,4.8v201.7c0.1,2.8,2.5,5,5.2,4.9H304.3L304.3,334.3z M612.6,334.3c2.8,0.1,5.1-2.1,5.2-4.9V127.8
	c-0.1-2.8-2.4-4.9-5.2-4.8c0,0,0,0,0,0H410.1c-2.7-0.1-5.1,2-5.2,4.8c0,0,0,0,0,0.1v201.7c0.1,2.8,2.4,5,5.2,4.9c0,0,0,0,0,0H612.6z
	 M920.8,693.7H718.4c-2.8-0.1-5,2.1-5.1,4.8c0,0,0,0.1,0,0.1v201.6c0,2.7,2.3,4.9,5,4.9c0.1,0,0.1,0,0.2,0h202.4
	c2.8,0.1,5.1-2.1,5.2-4.9V698.6C926,695.8,923.6,693.6,920.8,693.7z M614.6,618.6c2.8,0.1,5.1-2.1,5.2-4.9V412.2
	c-0.1-2.8-2.4-5-5.2-4.9c0,0,0,0,0,0H412.1c-2.8-0.1-5.1,2.1-5.2,4.9c0,0,0,0,0,0v201.6c0.1,2.8,2.4,4.9,5.2,4.9L614.6,618.6
	L614.6,618.6z M616.7,693.7H414.2c-2.8-0.1-5.1,2.2-5.2,4.9v201.6c0.1,2.8,2.4,5,5.2,4.9c0,0,0,0,0,0h202.6c2.7,0,5-2.1,5.1-4.9
	V698.6C621.8,695.9,619.5,693.7,616.7,693.7L616.7,693.7z M308.3,693.7H105.7c-2.7-0.1-5,2.1-5.1,4.9c0,0,0,0,0,0.1v201.6
	c0,2.7,2.2,4.9,4.9,4.9c0,0,0.1,0,0.1,0h202.6c2.8,0,5-2.1,5.1-4.9V698.6C313.4,695.9,311.1,693.7,308.3,693.7L308.3,693.7z
	 M918.8,618.6c2.8,0,5-2.1,5.1-4.9V412.2c-0.1-2.8-2.3-5-5.1-4.9c0,0,0,0,0,0H716.4c-2.8,0-5,2.2-5.1,4.9v201.6
	c0.1,2.7,2.3,4.9,5.1,4.9H919L918.8,618.6z M916.7,334.2c2.8,0.1,5.1-2.1,5.2-4.9c0,0,0,0,0,0V127.8c-0.1-2.7-2.3-4.9-5.1-4.8
	c0,0-0.1,0-0.1,0H714.3c-2.8-0.1-5.1,2.1-5.2,4.8v201.7c0.1,2.8,2.4,5,5.2,4.9L916.7,334.2L916.7,334.2z M306.2,618.6
	c2.8,0.1,5.1-2.1,5.2-4.8c0,0,0,0,0,0V412.2c0-2.8-2.3-5-5-4.9c0,0-0.1,0-0.1,0H103.8c-2.7-0.1-5,2-5.1,4.8c0,0,0,0.1,0,0.1v201.6
	c0,2.7,2.3,4.9,5.1,4.9c0,0,0,0,0.1,0L306.2,618.6L306.2,618.6z"/>
</svg>
