<?xml version="1.0" encoding="utf-8"?>
<!-- Generator: Adobe Illustrator 21.0.0, SVG Export Plug-In . SVG Version: 6.00 Build 0)  -->
<svg version="1.0" id="图层_1" xmlns="http://www.w3.org/2000/svg" xmlns:xlink="http://www.w3.org/1999/xlink" x="0px" y="0px"
	 viewBox="0 0 1024 1024" style="enable-background:new 0 0 1024 1024;" xml:space="preserve">
<path id="icon_folder_folder" d="M882.9,223.7H571c-6.3,0-12.3-2.3-17-6.4L496.8,167c-11-9.7-25.1-15-39.7-15h-205
	c-24.2,0.3-43.6,20.1-43.4,44.3v59.2h-65.6c-24.2,0.3-43.6,20.1-43.4,44.3v530.6c-0.2,24.2,19.2,44,43.4,44.3h630.8
	c24.2-0.3,43.6-20.1,43.4-44.3v-59.2h65.6c24.2-0.3,43.6-20.1,43.4-44.3v-459C926.5,243.7,907.1,223.9,882.9,223.7z M782.6,830.2
	c0,4.8-3.8,8.8-8.7,8.9H143.1c-4.8-0.1-8.7-4-8.7-8.9v-364h648.2L782.6,830.2L782.6,830.2L782.6,830.2z M782.6,430.7H134.4V299.6
	c0-4.8,3.8-8.8,8.7-8.8l0,0h205c6.3,0,12.3,2.3,17,6.4l57.2,50.3c11,9.7,25.1,15,39.7,15h311.9c4.8,0.1,8.7,4,8.7,8.9L782.6,430.7
	L782.6,430.7z M891.6,726.7c0,4.8-3.8,8.8-8.7,8.9h-65.6V371.4c0.2-24.2-19.2-44-43.4-44.3H462.1c-6.3,0-12.3-2.3-17-6.4l-57.2-50.3
	c-11-9.7-25.1-15-39.7-15H243.4v-59.2c0-4.8,3.8-8.8,8.7-8.8h205c6.3,0,12.3,2.3,17,6.4l57.2,50.3c11,9.7,25.1,15,39.7,15h311.9
	c4.8,0,8.7,4,8.7,8.8l0,0L891.6,726.7L891.6,726.7L891.6,726.7z M713.4,526.5h-104c-9.8,0-17.7,7.9-17.7,17.7s7.9,17.7,17.7,17.7
	h104c9.8,0,17.7-8,17.6-17.8C731,534.4,723.2,526.5,713.4,526.5L713.4,526.5z M713.4,611.5h-104c-9.8,0.3-17.5,8.5-17.2,18.2
	c0.3,9.4,7.8,16.9,17.2,17.2h104c9.8-0.3,17.5-8.5,17.2-18.3C730.3,619.3,722.8,611.8,713.4,611.5L713.4,611.5z"/>
</svg>
