<?xml version="1.0" encoding="utf-8"?>
<!-- Generator: Adobe Illustrator 21.0.0, SVG Export Plug-In . SVG Version: 6.00 Build 0)  -->
<svg version="1.0" id="图层_1" xmlns="http://www.w3.org/2000/svg" xmlns:xlink="http://www.w3.org/1999/xlink" x="0px" y="0px"
	 viewBox="0 0 1024 1024" style="enable-background:new 0 0 1024 1024;" xml:space="preserve">
<path id="icon_home_checklist" d="M234,668.6c-73.8,0-133.8,54.2-133.8,121s60,120.9,133.8,120.9s133.8-54.3,133.8-120.9
	S307.8,668.6,234,668.6z M234,854.5c-39.6,0-71.9-29.1-71.9-64.9c0-35.8,32.2-64.9,71.9-64.9s71.8,29.1,71.8,64.9
	S273.6,854.5,234,854.5L234,854.5z M234,634c73.8,0,133.8-54.3,133.8-120.9c0-66.7-60-121-133.8-121s-133.8,54.3-133.8,121
	C100.2,579.8,160.2,634,234,634z M234,448.1c39.6,0,71.8,29.1,71.8,64.9c0,35.8-32.2,64.9-71.8,64.9s-71.9-29.1-71.9-64.9
	C162.2,477.2,194.4,448.1,234,448.1z M234,352.9c73.8,0,133.8-54.3,133.8-120.9c0-66.7-60-120.9-133.8-120.9
	s-133.8,54.3-133.8,120.9C100.2,298.6,160.2,352.9,234,352.9z M234,167c39.6,0,71.8,29.1,71.8,65c0,35.8-32.2,64.9-71.8,64.9
	s-71.9-29.1-71.9-64.9C162.2,196.1,194.4,167,234,167L234,167z M453,861.1h428.2c25.7,0,46.5-19.1,46.5-42.2
	c0-23.2-20.8-42.2-46.5-42.2H453c-25.7,0-46.5,19-46.5,42.2C406.5,842.1,427.3,861.2,453,861.1L453,861.1z M453,593.2h428.2
	c25.7,0,46.5-19,46.5-42.2c0-23.2-20.8-42.2-46.5-42.2H453.1c-25.7,0-46.5,19-46.5,42.2C406.5,574.2,427.3,593.2,453,593.2
	L453,593.2z M453,302.8h428.2c25.7,0,46.5-18.3,46.5-41.5c0-23.2-20.8-41.6-46.5-41.6H453.1c-25.7,0-46.5,18.3-46.5,41.6
	C406.5,284.4,427.3,302.8,453,302.8L453,302.8z M453,690.9c-17.1,0-31,12.9-31,28.4s13.9,28.4,31,28.4h428.2c17.1,0,31-12.9,31-28.4
	s-13.8-28.4-31-28.4H453z M453,422.9c-17.1,0-31,12.9-31,28.4c0,15.5,13.9,28.4,31,28.4h428.2c17.1,0,31-12.9,31-28.4
	s-13.8-28.4-31-28.4H453z M453,189.3h428.2c17.1,0,31-12.3,31-27.7c0-15.5-13.8-27.7-31-27.7H453.1c-17.1,0-31,12.2-31,27.7
	S435.9,189.3,453,189.3L453,189.3z M234.1,556.3c-26.4,0-47.8-19.3-47.8-43.2c0-23.9,21.4-43.2,47.8-43.2s47.8,19.3,47.8,43.2
	S260.5,556.3,234.1,556.3L234.1,556.3z"/>
</svg>
