<?xml version="1.0" encoding="utf-8"?>
<!-- Generator: Adobe Illustrator 21.0.0, SVG Export Plug-In . SVG Version: 6.00 Build 0)  -->
<svg version="1.0" id="图层_1" xmlns="http://www.w3.org/2000/svg" xmlns:xlink="http://www.w3.org/1999/xlink" x="0px" y="0px"
	 viewBox="0 0 1024 1024" style="enable-background:new 0 0 1024 1024;" xml:space="preserve">
<style type="text/css">
	.st0{fill:#FFFFFF;}
</style>
<path d="M852.2,98.2c3.9,1,7.8,1.9,11.6,3c33.7,9.7,59.2,43.5,63.6,84.6c0.5,4.6,0.6,9.3,0.6,13.9c0,170.4,0,340.9,0,511.3
	c0,52.3-31.2,94.5-74.4,100.8c-2.7,0.4-5.4,0.4-8.2,0.4c-24.9,0-49.8-0.3-74.7,0.2c-11.9,0.2-24-10.6-24.1-27.7
	c-0.2-15.9,10.4-28.1,24.3-28.1c24.3,0,48.5,0,72.8,0c21.7,0,37.9-19.9,37.9-45.9c-0.1-169.5-0.2-339,0.1-508.5
	c0-26.7-14.6-43-28.6-46.7c-3-0.8-6.1-1.3-9.2-1.3c-220.5-0.1-441-0.1-661.6,0c-20.9,0-37.5,20-37.5,45.1c0,170.9,0,341.8,0,512.7
	c0,24.8,16.6,44.6,37.4,44.6c147.2,0,294.5,0.1,441.7-0.2c12.3,0,25.5,10.8,25.1,31.5c-0.6,26.7-0.2,53.4-0.3,80.2
	c0,1.2,0.2,2.4,0.3,4.1c1.7,0,3.2,0,4.7,0c14,0,28-0.1,42,0c11.8,0.1,21.5,10.7,22.8,24.4c1.4,14.4-5.8,27.1-17.4,30.5
	c-0.9,0.3-1.8,0.4-2.7,0.5c-1.2,0.1-2.3,0.1-3.5,0.1c-97.3,0.1-194.6,0.3-291.9,0.4c-24.1,0-48.2-0.2-72.4-0.4
	c-13.1-0.1-23.1-12.2-23.1-27.8c0-15.3,10.3-27.7,23.3-27.8c14-0.1,28,0,42,0c1.4,0,2.8,0,4.5,0c0-20,0-39.6,0-59.9
	c-2.1,0-4,0-5.9,0c-63,0-126.1-0.4-189.1,0.1c-38.4,0.3-76-32.6-83.2-84.7c-0.4-2.9-0.7-5.8-1.1-8.7c0-175.9,0-351.7,0-527.6
	c0.3-1.5,0.6-3,0.8-4.5c5-40.8,23.7-68.6,55.9-82.9c6.7-3,14-3.9,21.1-5.8C401.3,98.2,626.7,98.2,852.2,98.2z M601.6,871.9
	c0.2-1,0.3-1.4,0.3-1.9c0-18,0-36,0.1-54c0-3.9-2-3.7-4.1-3.7c-56.5,0-113.1,0-169.6-0.1c-3.3,0-4.2,1.4-4.1,5.2
	c0.1,16.6,0,33.2,0.1,49.9c0,1.5,0.2,3,0.3,4.6C483.7,871.9,542.5,871.9,601.6,871.9z"/>
<path d="M428,396.4c2.1-36.2,15.3-64.7,41.2-83.5c26-18.8,53.2-18.9,81.2-4.3c0.5-4.6,0.9-8.8,1.4-13c4.8-41.2,33.8-76.3,67.8-83.6
	c46.9-10.1,91,27.2,98.9,82.3c0.7,4.9,1.1,9.9,1.1,14.8c0.1,59.5,0.1,119,0,178.5c0,16.3-9.8,28.2-23.1,28.2
	c-13.5,0-23.4-11.9-23.4-28.4c0-58.6,0-117.1,0-175.7c0-26.1-18.6-47.3-40-45.7c-20.8,1.5-36.1,21.7-36.1,47.7
	c0.1,105.5,0.1,211,0.2,316.5c0,1.5,0,3.1,0,5.1c2,0.2,3.7,0.4,5.5,0.4c30.9,0,61.7,0,92.6,0c12.5,0,22.5,9.9,24.1,23.8
	c1.6,13.8-5.2,26.7-16.2,30.7c-2.4,0.9-5.1,1.3-7.6,1.3c-37.7,0.1-75.5,0-113.2,0c-40.7,0-81.5,0-122.2,0
	c-43.5,0.1-86.9,0.3-130.4,0.3c-14.1,0-24-11.9-24-28.7c0-58.9,0-117.8,0-176.6c0-48.1,31-91,70.8-98.3c16.6-3.1,32.5-0.8,47.9,7.2
	c0.7,0.4,1.4,0.7,2.2,1.1C427,396.5,427.3,396.4,428,396.4z M474.6,514c0,39,0,78-0.1,117c0,4,0.8,5.3,4.3,5.3
	c22.7-0.2,45.4-0.2,68.1,0c3,0,4.1-1,4-4.7c-0.1-78,0-155.9-0.1-233.9c0-11.5-3.8-21.5-10.4-29.7c-11.1-13.9-27.6-17.8-43-10.4
	c-13.7,6.6-22.9,23.6-22.9,42.3C474.6,437.9,474.6,475.9,474.6,514z M428.4,636c0-1.8,0-3.2,0-4.6c0-48.9,0-97.9,0-146.8
	c0-1.9,0-3.8-0.3-5.6c-4-23-20.7-38.2-39.3-36.7c-21,1.7-36.3,21.2-36.3,44.9c0,47.9,0,95.7,0,143.6c0,1.7,0.1,3.3,0.2,5.2
	C377.9,636,402.8,636,428.4,636z"/>
<path class="st0" d="M601.6,871.9c-59.1,0-117.9,0-177.1,0c-0.1-1.6-0.3-3.1-0.3-4.6c0-16.6,0.1-33.2-0.1-49.9
	c0-3.7,0.8-5.2,4.1-5.2c56.5,0.1,113.1,0.1,169.6,0.1c2.1,0,4.1-0.3,4.1,3.7c-0.1,18-0.1,36-0.1,54
	C601.9,870.5,601.7,870.9,601.6,871.9z"/>
</svg>
