<?xml version="1.0" encoding="utf-8"?>
<!-- Generator: Adobe Illustrator 21.0.0, SVG Export Plug-In . SVG Version: 6.00 Build 0)  -->
<svg version="1.0" id="图层_1" xmlns="http://www.w3.org/2000/svg" xmlns:xlink="http://www.w3.org/1999/xlink" x="0px" y="0px"
	 viewBox="0 0 1024 1024" style="enable-background:new 0 0 1024 1024;" xml:space="preserve">
<path id="icon_settings_account" class="st0" d="M429.9,181.6C323,181.6,236.2,289,236.2,421.5S323,661.3,429.9,661.3
	s193.8-107.4,193.8-239.9S537,181.6,429.9,181.6z M429.9,620.2c-83.9,0-152.1-89.1-152.1-198.7S346,222.7,429.9,222.7
	s152.3,89.1,152.3,198.7S513.8,620.2,429.9,620.2z M635.3,131.3c-36.7,0.6-71.8,14.9-98.3,40.2c12,7.4,23.2,15.8,33.7,25.2
	c18.1-15.3,41-23.9,64.7-24.4c69.5,0,126,74.6,126,166.3c0,82.7-46.1,151-106.2,163.6c-3.7,14.7-8.6,29.1-14.4,43.1
	c90-3.6,162.1-94.4,162.1-206.7C802.8,224.2,727.8,131.3,635.3,131.3z M829.3,538.6c-13.4-6.2-29.4-13.6-48.1-22.3
	c-9.6,11.2-20.3,21.4-31.9,30.5c116,55.1,137.2,58.3,137.2,82.4c0,27.6-28,27.6-55.8,27.6H740c18.3,10.2,34.1,24.2,46.3,41.1h44.4
	c24,0,97.3,0,97.3-68.8C928,584,897.2,569.8,829.3,538.6z M651.7,658.4c-17.5-8-38.7-17.8-63.6-29.6c-10,11-21,21-32.8,30
	C695,725.6,720.5,729,720.5,757.3c0,32-32.2,32-64.5,32H204c-32.2,0-64.5,0-64.5-32c0-28.3,25.5-31.7,165.1-98.4
	c-11.8-9-22.8-19-32.8-30c-24.9,11.8-46.1,21.6-63.6,29.6C130.2,694.3,98,709.2,98,757.3c0,73,77,73,106,73h452c29,0,106,0,106-73
	C762,709.2,729.7,694.3,651.7,658.4L651.7,658.4z"/>
</svg>
