<?xml version="1.0" encoding="utf-8"?>
<!-- Generator: Adobe Illustrator 21.0.0, SVG Export Plug-In . SVG Version: 6.00 Build 0)  -->
<svg version="1.0" id="图层_1" xmlns="http://www.w3.org/2000/svg" xmlns:xlink="http://www.w3.org/1999/xlink" x="0px" y="0px"
	 viewBox="0 0 1024 1024" style="enable-background:new 0 0 1024 1024;" xml:space="preserve">
<style type="text/css">
	.st0{fill:#FFFFFF;}
</style>
<g>
	<path d="M744.3,98.2c4.5,2.5,9.4,4.4,13.3,7.7c4.8,4,6.8,9.9,6.8,16.4c0,8.1,0,16.2,0,25c1.8,0,3.3,0,4.8,0c24.7,0,49.5,0,74.2,0
		c32.6,0,58.5,26.6,58.5,60.1c0,91.3,0,182.7,0,274c0,10-4,17.9-12.8,22.6c-8.2,4.4-16.6,3.9-24.3-1.5c-7-4.9-10.2-12-10.2-20.9
		c0.1-53.1,0-106.3,0-159.4c0-5.7,0-5.7-5.4-5.7c-232.4,0-464.8,0-697.3,0c-5.5,0-5.5,0-5.5,5.6c0,173.3,0,346.6,0,519.9
		c0,9.7,4,13.8,13.5,13.8c101.8,0,203.7,0,305.5,0c7,0,13.7,1,19.2,6c7.3,6.6,10,17.2,6.8,26.7c-3.3,9.6-11.8,15.8-22.4,16.3
		c-0.6,0-1.3,0-1.9,0c-102.7,0-205.5,0-308.2,0c-27.7,0-50.5-17.7-57.6-44.6c-0.9-3.4-1.4-7-2.2-10.5c0-216.6,0-433.2,0-649.7
		c0.3-1,0.8-2,0.9-3c4.9-28.8,29-49.7,57.3-49.7c24.7,0,49.5,0,74.2,0c1.5,0,3,0,4.9,0c0.1-1.8,0.2-3.3,0.2-4.7
		c0-7.1-0.1-14.1,0.1-21.2c0.3-10.5,7.4-19.4,17.2-22.2c1-0.3,1.9-0.7,2.9-1c2.3,0,4.7,0,7,0c1,0.4,1.9,0.8,2.9,1.1
		c9.9,2.9,16.9,12.1,17.1,22.7c0.2,6.9,0,13.9,0.1,20.8c0,1.4,0.1,2.8,0.2,4.2c64.5,0,128.5,0,192.9,0c0-8.4,0-16.6,0-24.7
		c0-6.5,2-12.4,6.8-16.4c3.9-3.2,8.8-5.2,13.3-7.7c2.3,0,4.7,0,7,0c1,0.4,1.9,0.8,2.9,1.1c10.1,3,17.1,12.3,17.2,23.1
		c0.1,6,0,12,0,18c0,2.2,0,4.4,0,6.6c64.7,0,128.7,0,193.1,0c0-8.3,0-16.3,0-24.3c0.1-11.3,7-20.5,17.6-23.5c0.9-0.2,1.7-0.6,2.5-1
		C739.7,98.2,742,98.2,744.3,98.2z M283.9,196.2c0,6.3,0,12.2,0,18c0,9.7-3.6,17.6-11.6,22.6c-15.7,9.9-35.2-1.6-35.5-20.6
		c-0.1-5.6-0.1-11.2,0-16.8c0.1-2.7-0.9-3.4-3.4-3.4c-25.1,0.1-50.3,0-75.4,0.1c-7.6,0-11.6,4.4-11.7,12.3c0,10.7,0,21.4,0,32
		c0,7.6,0.2,15.2-0.1,22.8c-0.1,3.7,0.8,5.6,4.7,5c1.3-0.2,2.6,0,3.9,0c150.5,0,301,0,451.6,0c81,0,161.9,0,242.9,0
		c5.4,0,5.4,0,5.4-5.7c0-17.5,0-35,0-52.5c0-10-3.9-14-13.7-14c-24,0-47.9,0-71.9,0c-1.5,0-3,0.2-4.9,0.3c0,6.9,0.1,13.5,0,20
		c-0.3,11.8-8.2,21.6-19.3,23.8c-10.6,2.1-21.4-3.7-25.6-14.6c-1.4-3.6-1.8-7.7-2.1-11.7c-0.3-5.8-0.1-11.6-0.1-17.5
		c-64.7,0-128.8,0-193.2,0c0,3.1,0.1,5.9,0,8.7c-0.2,5.2,0,10.4-0.7,15.6c-1.2,9.5-9,17.5-18.2,19.4c-9.2,1.9-19.3-2-23.8-10.3
		c-2.3-4.4-3.6-9.7-4.1-14.7c-0.7-6.1-0.2-12.4-0.2-18.8C412.5,196.2,348.6,196.2,283.9,196.2z"/>
	<path d="M720.2,928.2c-8.1-1.1-16.2-1.9-24.2-3.3c-38.9-7-72.8-24.7-101.4-52.7c-29.4-28.8-48.6-63.7-57.2-104.7
		c-0.6-2.9-1.8-3.8-4.6-3.8c-28.9,0.1-57.8,0.1-86.7,0.1c-15.1,0-25-10.3-25-25.8c0-33.6,0-67.3,0-100.9c0-14.5,10.1-25.1,24.1-25.1
		c37,0,74.1,0,111.1,0c0.8,0,1.6-0.2,2.3,0.1c5.4,2.2,7.8-1,10.7-5.2c19-27.8,43.4-49.3,72.9-64.6c2.5-1.3,4.1-2.5,2.8-5.7
		c-0.4-1.2-0.2-2.6-0.2-4c0-34.2,0-68.4,0-102.5c0-14.3,10.1-24.8,24-24.8c37,0,74.1,0,111.1,0c13.9,0,24,10.4,24.1,24.7
		c0,33.5,0.1,67-0.1,100.5c0,3.6,1.1,5.4,4.3,6.8c29.4,12.9,54.2,32.1,74.5,57.5c11.4,14.2,5.5,34.8-11.3,39.5
		c-9.9,2.8-18.4-0.1-25.1-8.3c-17.2-21.2-38.1-37.5-63.5-46.5c-57.3-20.3-109.3-10-154.5,31.7c-27.7,25.5-43.6,58.2-47.3,96.3
		c-4.4,46.1,8,87.2,38.7,121.6c25.5,28.7,57.3,45.2,94.8,49.5c75.8,8.7,147.7-45.1,162.6-122c2-10.5,2.7-21.4,3.4-32.1
		c0.8-12.8,9.2-22.9,21.1-24.3c11.5-1.3,23,6.1,25.2,17.8c1.4,7.6,1,15.7,0.4,23.5c-2.5,30.9-11.1,59.9-26.8,86.4
		c-31.3,52.9-76.4,85.5-135.6,97c-8.1,1.6-16.4,2.3-24.6,3.4C733.7,928.2,727,928.2,720.2,928.2z M756.6,508.5
		c0.2-1.1,0.3-1.6,0.3-2.2c0-16.4,0-32.8,0.1-49.2c0-3.4-1.8-3.2-4-3.2c-18.9,0-37.8,0.1-56.7-0.1c-3.1,0-4.3,0.9-4.2,4.3
		c0.2,15.3,0.2,30.7,0,46c0,3.7,1.2,4.4,4.5,4.4c16.4-0.1,32.9-0.1,49.3-0.1C749.3,508.5,752.8,508.5,756.6,508.5z M500.7,660.5
		c-9.6,0-19.2,0.1-28.7-0.1c-2.7,0-3.6,1-3.6,3.7c0.1,15.7,0.1,31.5,0,47.2c0,2.8,1,3.7,3.7,3.7c19.2-0.1,38.3-0.1,57.5,0
		c2.6,0,3.6-0.8,3.6-3.6c-0.1-15.7,0-31.5,0.2-47.2c0-3.1-1.1-3.8-3.9-3.8C519.9,660.6,510.3,660.5,500.7,660.5z"/>
	<path d="M500.2,405.3c18.5,0,37,0,55.6,0c13.8,0,24.2,10.4,24.3,24.6c0.1,34.2,0.1,68.3,0,102.5c0,14.2-10.5,24.7-24.3,24.7
		c-37,0-74.1,0-111.1,0c-13.8,0-24.2-10.5-24.3-24.6c-0.1-34.2-0.1-68.3,0-102.5c0-14.2,10.5-24.6,24.3-24.6
		C463.2,405.3,481.7,405.3,500.2,405.3z M500.2,508.4c9.4,0,18.9-0.1,28.3,0.1c3.1,0,4.4-0.8,4.3-4.2c-0.1-15.3-0.1-30.7,0-46
		c0-3-0.7-4.3-3.9-4.3c-19.2,0.1-38.3,0.1-57.5,0c-3.2,0-3.9,1.2-3.9,4.2c0.1,15.3,0.1,30.7,0,46c0,3.4,1.2,4.3,4.3,4.3
		C481.3,508.3,490.8,508.4,500.2,508.4z"/>
	<path d="M276.4,611.8c18.4,0,36.8,0,55.2,0c14.2,0,24.4,10.2,24.4,24.3c0,13.9-10.5,24.4-24.5,24.4c-27.8,0-55.7,0.1-83.5-0.1
		c-3.5,0-4.3,1.1-4.3,4.5c0.2,15.1,0.2,30.2,0,45.2c0,3.7,1,4.8,4.6,4.8c28-0.1,55.9-0.1,83.9-0.1c9.8,0,17.3,4.5,21.5,13.7
		c4.2,9.2,3.2,18.2-3.1,26.2c-4.8,6.1-11.3,8.7-18.8,8.7c-37,0-74.1,0.1-111.1-0.1c-14.5-0.1-24.1-10.6-24.1-25.6
		c0-33.6,0-67.3,0-100.9c0-14.9,9.9-25.1,24.3-25.2C239.3,611.8,257.9,611.8,276.4,611.8z"/>
	<path d="M244.5,453.7c0,18.4,0,36.1,0,54.4c1.9,0,3.7,0,5.5,0c27.3,0,54.7,0,82,0c11.6,0,20.7,7,23.5,17.7
		c4.2,16.2-7,30.9-23.8,30.9c-25.1,0.1-50.3,0-75.4,0c-11.5,0-23.1,0-34.6,0c-14.7-0.1-24.7-9.5-24.9-24.7
		c-0.3-34.2-0.3-68.4,0-102.5c0.2-15.1,10.1-24.4,24.7-24.4c36.8,0,73.6,0,110.4,0c14.1,0,24.4,10.3,24.4,24.3
		c0,13.9-10.4,24.3-24.5,24.3c-27.5,0-54.9,0-82.4,0C247.9,453.7,246.3,453.7,244.5,453.7z"/>
	<path d="M762.7,748.6c-10.5,0-21,0-31.5,0c-13.8-0.1-24-10.6-24.1-24.8c0-21.8,0-43.5,0-65.3c0-13.9,10.1-24.8,23.1-25
		c13.6-0.1,23.9,10.1,24.1,24.3c0.2,12.5,0.1,25.1,0,37.6c0,3.4,0.8,4.6,4.3,4.6c12.3-0.2,24.6-0.1,36.9-0.1
		c12.9,0,23.1,10.6,23.2,23.9c0.1,13.3-9.9,24.2-22.6,24.6c-0.3,0-0.5,0-0.8,0C784.5,748.6,773.6,748.6,762.7,748.6z"/>
	<path class="st0" d="M756.6,508.5c-3.8,0-7.2,0-10.7,0c-16.4,0-32.9-0.1-49.3,0.1c-3.3,0-4.5-0.7-4.5-4.4c0.2-15.3,0.2-30.7,0-46
		c0-3.4,1.1-4.3,4.2-4.3c18.9,0.1,37.8,0.1,56.7,0.1c2.2,0,4-0.2,4,3.2c-0.1,16.4-0.1,32.8-0.1,49.2
		C756.9,506.9,756.7,507.4,756.6,508.5z"/>
	<path class="st0" d="M500.7,660.5c9.6,0,19.2,0.1,28.7-0.1c2.8,0,3.9,0.7,3.9,3.8c-0.2,15.7-0.2,31.5-0.2,47.2c0,2.8-1,3.6-3.6,3.6
		c-19.2-0.1-38.3-0.1-57.5,0c-2.6,0-3.7-0.9-3.7-3.7c0.1-15.7,0.1-31.5,0-47.2c0-2.7,0.8-3.7,3.6-3.7
		C481.5,660.6,491.1,660.5,500.7,660.5z"/>
	<path class="st0" d="M500.2,508.4c-9.4,0-18.9-0.1-28.3,0.1c-3.1,0.1-4.3-0.8-4.3-4.3c0.1-15.3,0.1-30.7,0-46c0-3,0.8-4.3,3.9-4.2
		c19.2,0.1,38.3,0.1,57.5,0c3.2,0,3.9,1.3,3.9,4.3c-0.1,15.3-0.1,30.7,0,46c0,3.5-1.3,4.3-4.3,4.2
		C519.1,508.3,509.7,508.4,500.2,508.4z"/>
</g>
</svg>
