<?xml version="1.0" encoding="utf-8"?>
<!-- Generator: Adobe Illustrator 21.0.0, SVG Export Plug-In . SVG Version: 6.00 Build 0)  -->
<svg version="1.0" id="图层_1" xmlns="http://www.w3.org/2000/svg" xmlns:xlink="http://www.w3.org/1999/xlink" x="0px" y="0px"
	 viewBox="0 0 1024 1024" style="enable-background:new 0 0 1024 1024;" xml:space="preserve">
<path id="icon_settings_organization" class="st0" d="M894.7,597.8h-94.1v-65.9c-0.3-16.4-13.9-29.5-30.4-29.2H542.1V454
	c83.7-16.7,138.1-98.2,121.3-181.9c-16.7-83.7-98.2-138.1-181.9-121.3c-83.7,16.7-138.1,98.2-121.3,181.9
	c12.2,61.2,60.1,109.1,121.3,121.3v48.6H253.3c-16.4-0.3-30,12.8-30.4,29.2v65.9h-94.1c-16.4-0.2-29.9,12.8-30.2,29.2v240
	c0.3,16.4,13.8,29.4,30.2,29.2h248.7c16.4,0.3,29.9-12.7,30.2-29.1c0,0,0-0.1,0-0.1V627c-0.3-16.4-13.7-29.4-30.1-29.2
	c0,0-0.1,0-0.1,0h-94.1v-36.8h456.7v36.8h-94.1c-16.4-0.3-29.9,12.7-30.2,29.1c0,0,0,0.1,0,0.1v240c0.3,16.4,13.7,29.4,30.1,29.2
	c0,0,0.1,0,0.1,0h248.7c16.4,0.2,29.9-12.8,30.2-29.2V627C924.6,610.6,911.1,597.5,894.7,597.8z M347.3,656.1v181.7H159V656.1H347.3
	z M417.6,307.7c-1.9-52,38.8-95.7,90.8-97.5c52-1.9,95.7,38.8,97.5,90.8c1.9,52-38.8,95.7-90.8,97.5c-1.2,0-2.3,0.1-3.5,0.1
	C460.7,399.3,418.6,358.7,417.6,307.7z M864.5,837.8H676.2V656.1h188.3V837.8z"/>
</svg>
