<?xml version="1.0" encoding="utf-8"?>
<!-- Generator: Adobe Illustrator 21.0.0, SVG Export Plug-In . SVG Version: 6.00 Build 0)  -->
<svg version="1.0" id="图层_1" xmlns="http://www.w3.org/2000/svg" xmlns:xlink="http://www.w3.org/1999/xlink" x="0px" y="0px"
	 viewBox="0 0 1024 1024" style="enable-background:new 0 0 1024 1024;" xml:space="preserve">
<path id="icon_folder_server" d="M887,180.6H140.7c-22.6-0.3-41.2,17.8-41.5,40.5v134.5c0.3,22.6,18.8,40.7,41.4,40.5h746.3
	c22.6,0.2,41.1-17.9,41.4-40.5V221.1C928,198.5,909.5,180.5,887,180.6z M900.7,355.6c-0.1,7.5-6.2,13.6-13.8,13.5H140.7
	c-7.5,0.1-13.7-6-13.8-13.5V221c0.1-7.5,6.2-13.6,13.8-13.5H887c7.5-0.1,13.7,6,13.8,13.5L900.7,355.6L900.7,355.6z M887,409.5
	H140.7c-22.6-0.3-41.2,17.8-41.5,40.4v134.5c0.3,22.6,18.8,40.7,41.4,40.5h746.3c22.6,0.2,41.1-17.9,41.4-40.5V449.9
	C928,427.3,909.5,409.3,887,409.5z M900.7,584.4c-0.1,7.5-6.2,13.6-13.8,13.5H140.7c-7.5,0.1-13.7-6-13.8-13.5V449.9
	c0.1-7.5,6.2-13.6,13.8-13.5H887c7.5-0.1,13.7,6,13.8,13.5L900.7,584.4L900.7,584.4z M209.7,247.9c-22.3,0.6-39.9,19.1-39.3,41.4
	s19.1,39.9,41.4,39.3c21.9-0.6,39.3-18.5,39.3-40.4C250.8,265.7,232.3,247.7,209.7,247.9z M209.7,301.8c-7.4-0.2-13.3-6.4-13.1-13.8
	s6.4-13.3,13.8-13.1c7.3,0.2,13.1,6.2,13.1,13.5C223.4,295.9,217.2,301.9,209.7,301.8z M209.7,476.8c-22.3,0.6-39.9,19.1-39.3,41.4
	c0.6,22.3,19.1,39.9,41.4,39.3c21.9-0.6,39.3-18.5,39.3-40.4C250.8,494.6,232.3,476.5,209.7,476.8z M209.7,530.6
	c-7.4-0.2-13.3-6.4-13.1-13.8c0.2-7.4,6.4-13.3,13.8-13.1c7.3,0.2,13.1,6.2,13.1,13.5C223.4,524.7,217.2,530.7,209.7,530.6z
	 M306.4,247.9c-22.3,0.6-39.9,19.1-39.3,41.4s19.1,39.9,41.4,39.3c21.9-0.6,39.3-18.5,39.3-40.4
	C347.6,265.8,329.1,247.7,306.4,247.9L306.4,247.9z M306.4,301.8c-7.4-0.2-13.3-6.4-13.1-13.8c0.2-7.4,6.4-13.3,13.8-13.1
	c7.3,0.2,13.1,6.2,13.1,13.5C320.2,295.8,314,301.9,306.4,301.8L306.4,301.8z M306.4,476.8c-22.3,0.6-39.9,19.1-39.3,41.4
	c0.6,22.3,19.1,39.9,41.4,39.3c21.9-0.6,39.3-18.5,39.3-40.4C347.6,494.6,329.1,476.5,306.4,476.8L306.4,476.8z M306.4,530.6
	c-7.4-0.2-13.3-6.4-13.1-13.8c0.2-7.4,6.4-13.3,13.8-13.1c7.3,0.2,13.1,6.2,13.1,13.5C320.1,524.7,314,530.7,306.4,530.6
	L306.4,530.6z M403.2,247.9c-22.3,0.6-39.9,19.1-39.3,41.4s19.1,39.9,41.4,39.3c21.9-0.6,39.3-18.5,39.3-40.4
	C444.3,265.8,425.8,247.7,403.2,247.9L403.2,247.9z M403.2,301.8c-7.4-0.2-13.3-6.4-13.1-13.8c0.2-7.4,6.4-13.3,13.8-13.1
	c7.3,0.2,13.1,6.2,13.1,13.5C416.9,295.8,410.7,301.8,403.2,301.8L403.2,301.8z M403.2,476.8c-22.3,0.6-39.9,19.1-39.3,41.4
	c0.6,22.3,19.1,39.9,41.4,39.3c21.9-0.6,39.3-18.5,39.3-40.4C444.3,494.6,425.8,476.5,403.2,476.8L403.2,476.8z M403.2,530.6
	c-7.4-0.2-13.3-6.4-13.1-13.8c0.2-7.4,6.4-13.3,13.8-13.1c7.3,0.2,13.1,6.2,13.1,13.5C416.9,524.7,410.7,530.7,403.2,530.6
	L403.2,530.6z M817.8,234.5c-29.7,0.8-53.2,25.5-52.4,55.3c0.8,29.7,25.5,53.2,55.3,52.4c29.2-0.8,52.4-24.6,52.4-53.8
	C872.6,258.2,847.9,234.2,817.8,234.5L817.8,234.5z M817.8,315.3c-14.9-0.4-26.6-12.8-26.2-27.6c0.4-14.9,12.8-26.6,27.6-26.2
	c14.6,0.4,26.2,12.3,26.2,26.9C845.2,303.4,832.9,315.4,817.8,315.3L817.8,315.3z M817.8,463.3c-29.7,0.8-53.2,25.5-52.4,55.3
	c0.8,29.7,25.5,53.2,55.3,52.4c29.2-0.8,52.4-24.6,52.4-53.8C872.6,487.1,847.9,463,817.8,463.3L817.8,463.3z M817.8,544.1
	c-14.9-0.4-26.6-12.8-26.2-27.7c0.4-14.9,12.8-26.6,27.7-26.2c14.6,0.4,26.2,12.4,26.2,26.9C845.2,532.2,832.9,544.3,817.8,544.1
	L817.8,544.1z M886.9,638.3H140.6c-22.6-0.2-41.2,17.9-41.4,40.5v134.4c0.3,22.6,18.8,40.7,41.4,40.5h746.3
	c22.6,0.2,41.1-17.9,41.4-40.5V678.8C928,656.2,909.5,638.1,886.9,638.3L886.9,638.3z M900.7,813.2c-0.1,7.5-6.2,13.6-13.8,13.5
	H140.6c-7.5,0.1-13.7-6-13.8-13.5l0,0V678.8c0.1-7.5,6.2-13.6,13.8-13.5h746.3c7.5-0.1,13.7,6,13.8,13.5V813.2z M209.7,705.6
	c-22.3,0.6-39.9,19.1-39.3,41.4c0.6,22.3,19.1,39.9,41.4,39.3c21.9-0.6,39.3-18.5,39.3-40.4C250.8,723.4,232.3,705.3,209.7,705.6z
	 M209.7,759.4c-7.4-0.2-13.3-6.4-13.1-13.8c0.2-7.4,6.4-13.3,13.8-13.1c7.3,0.2,13.1,6.2,13.1,13.5
	C223.4,753.5,217.2,759.5,209.7,759.4z M306.4,705.6c-22.3,0.6-39.9,19.1-39.3,41.4c0.6,22.3,19.1,39.9,41.4,39.3
	c21.9-0.6,39.3-18.5,39.3-40.4C347.6,723.4,329.1,705.4,306.4,705.6L306.4,705.6z M306.4,759.4c-7.4-0.2-13.3-6.4-13.1-13.8
	c0.2-7.4,6.4-13.3,13.8-13.1c7.3,0.2,13.1,6.2,13.1,13.5C320.1,753.5,314,759.5,306.4,759.4L306.4,759.4z M403.2,705.6
	c-22.3,0.6-39.9,19.1-39.3,41.4c0.6,22.3,19.1,39.9,41.4,39.3c21.9-0.6,39.3-18.5,39.3-40.4C444.3,723.4,425.8,705.4,403.2,705.6
	L403.2,705.6z M403.2,759.4c-7.4-0.2-13.3-6.4-13.1-13.8c0.2-7.4,6.4-13.3,13.8-13.1c7.3,0.2,13.1,6.2,13.1,13.5
	C416.9,753.5,410.7,759.5,403.2,759.4L403.2,759.4z M817.8,692.2c-29.7,0.8-53.2,25.5-52.4,55.3c0.8,29.7,25.5,53.2,55.3,52.4
	c29.2-0.8,52.4-24.6,52.4-53.8C872.6,715.9,847.9,691.8,817.8,692.2L817.8,692.2z M817.8,772.9c-14.9-0.4-26.6-12.8-26.2-27.6
	c0.4-14.9,12.8-26.6,27.6-26.2c14.6,0.4,26.2,12.3,26.2,26.9C845.2,761,832.8,773.1,817.8,772.9L817.8,772.9z"/>
</svg>
