<?xml version="1.0" encoding="utf-8"?>
<!-- Generator: Adobe Illustrator 21.0.0, SVG Export Plug-In . SVG Version: 6.00 Build 0)  -->
<svg version="1.0" id="图层_1" xmlns="http://www.w3.org/2000/svg" xmlns:xlink="http://www.w3.org/1999/xlink" x="0px" y="0px"
	 viewBox="0 0 1024 1024" style="enable-background:new 0 0 1024 1024;" xml:space="preserve">
<path id="icon_folder_spreadsheetcell" d="M897,100H130.1c-18.1,1.1-31.9,16.5-31,34.6v758.8c-0.1,11,4.7,21.4,13.3,28.3v5.5h11.1
	c2.2,0.5,4.4,0.8,6.6,0.8H897c2.2,0,4.4-0.3,6.6-0.8h1.5v-0.5c14.1-4.9,23.3-18.4,22.9-33.3V134.6C928.9,116.5,915,101.1,897,100z
	 M221.5,897.7h-93.7c-1.3-0.9-2.1-2.5-2.1-4.1v-89.9h95.9v94H221.5z M221.5,774h-95.9v-97.7h95.9v97.5V774z M221.5,646.8h-95.9
	V543.7h95.9v102.9V646.8z M221.5,514.2h-95.9V402.6h95.9V514V514.2z M221.5,373.1h-95.9V264.2h95.9V373.1z M445,897.5H248.1v-94H445
	V897.5z M445,773.8H248.1v-97.5H445V773.8L445,773.8z M445,646.6H248.1V543.7H445V646.6z M445,514H248.1V402.6H445V514z M445,373
	H248.1V264.1H445V373z M445,234.4H248.1V129.6H445V234.4z M670.6,897.5H471.5v-94h199.1V897.5z M670.6,773.8H471.5v-97.5h199.1
	V773.8L670.6,773.8z M670.6,646.6H471.5V543.7h199.1V646.6L670.6,646.6z M670.6,514H471.5V402.6h199.1V514L670.6,514z M670.6,373
	H471.5V264.1h199.1V373z M670.6,234.4H471.5V129.6h199.1V234.4z M901.4,893.4c0,1.6-0.8,3.2-2.1,4.1H697.2v-94h204.2V893.4z
	 M901.4,773.8H697.2v-97.5h204.2V773.8L901.4,773.8z M901.4,646.6H697.2V543.7h204.2V646.6L901.4,646.6z M901.4,514H697.2V402.6
	h204.2V514L901.4,514z M901.4,373H697.2V264.1h204.2V373z M901.4,234.4H697.2V129.6H897c2.6,0.2,4.6,2.4,4.4,5V234.4z M650.3,345.5
	H491v-62h159.3V345.5L650.3,345.5z"/>
</svg>
