<?xml version="1.0" encoding="utf-8"?>
<!-- Generator: Adobe Illustrator 21.0.0, SVG Export Plug-In . SVG Version: 6.00 Build 0)  -->
<svg version="1.0" id="图层_1" xmlns="http://www.w3.org/2000/svg" xmlns:xlink="http://www.w3.org/1999/xlink" x="0px" y="0px"
	 viewBox="0 0 1024 1024" style="enable-background:new 0 0 1024 1024;" xml:space="preserve">
<style type="text/css">
	.st0{fill:#FFFFFF;}
</style>
<g>
	<path d="M685.2,928.2c-4.5-2.4-9.4-4.2-13.4-7.3c-5.2-4.1-7.6-10.1-7.6-16.8c0-46.8,0-93.6,0.1-140.4c0-12.6,10.9-22.9,23.7-23
		c36.4-0.1,72.9,0,109.3,0c5.3,0,5.3,0,5.3-5.3c0-191.2,0-382.5,0-573.7c0-10.2-4.3-14.5-14.4-14.5c-183.8,0-367.7,0-551.5,0
		c-10.1,0-14.4,4.3-14.4,14.4c0,234.3,0,468.5,0,702.8c0,10.3,3.9,14.2,14,14.2c113.3,0,226.6,0,339.9,0c6.5,0,12.7,0.8,18,5
		c8.3,6.6,11.6,15.2,9.1,25.5c-2.4,10-9,16-19.1,18.2c-0.9,0.2-1.7,0.6-2.5,0.9c-0.8,0-1.6,0-2.3,0c-2.1-0.2-4.1-0.5-6.2-0.5
		c-113.1,0-226.2,0-339.2,0c-27.9,0-51.4-18.1-58.5-45c-0.8-3.2-1.4-6.5-2.1-9.8c0-240.1,0-480.2,0-720.3c0.3-1,0.7-1.9,0.9-2.9
		c3.6-21.4,15.1-36.9,34.8-45.9c5.9-2.7,12.5-3.8,18.8-5.6c189.8,0,379.6,0,569.4,0c1,0.3,1.9,0.7,2.9,0.9
		c20,3.3,35.1,13.7,44.3,31.7c3.5,7,4.9,15.1,7.2,22.7c0,205.4,0,410.7,0,616.1c-2,6.2-5.4,11.2-10,15.8
		c-42.6,42.4-85.1,85-127.6,127.5c-6.4,6.4-12.4,13.2-21.8,15.3C689.8,928.2,687.5,928.2,685.2,928.2z M765.8,789.8
		c-17,0-34.5,0-52.3,0c0,17.7,0,35.2,0,52.3C730.9,824.7,748.4,807.2,765.8,789.8z"/>
	<path d="M588.6,456.3c2,0.1,3.5,0.3,5,0.2c28.1,0,56.3,0,84.4-0.1c15,0,25.2,8.4,26.8,22.5c0.7,6.5-1.4,12.2-5.1,17.5
		c-24.8,34.8-49.5,69.7-74.3,104.6c-30.5,43-61.1,86-91.6,129c-11.9,16.7-31.2,16.7-43.1-0.1C435.5,652,380.2,574.2,325,496.3
		c-10.5-14.8-4.3-34,12.6-38.7c3.1-0.9,6.4-1,9.6-1c28-0.1,56,0,84,0c5.1,0,5.1,0,5.1-5.1c0-47.2,0.3-94.4-0.2-141.6
		c-0.1-13.5,10.6-25.8,25.7-25.6c33.7,0.3,67.4,0.1,101.1,0.1c15.3,0,25.7,10.3,25.7,25.5c0,47.1,0,94.1,0,141.2
		C588.6,452.7,588.6,454.3,588.6,456.3z M632.7,505.9c-2-0.1-3.3-0.3-4.6-0.3c-20.9,0-41.7,0-62.6-0.1c-2.9,0-6-0.4-8.8-1.2
		c-10.9-3.3-17-12.4-17-25c0-47.1-0.1-94.1,0.1-141.2c0-3.8-0.9-5.2-4.9-5.1c-15,0.2-30.1,0.1-45.1,0.1c-1.4,0-2.8,0.2-4.6,0.3
		c0,2,0,3.6,0,5.3c0,46.8,0,93.6,0,140.4c0,16.3-10.2,26.5-26.4,26.5c-20.5,0-41,0-61.5,0c-1.5,0-3,0-5.4,0
		c40.5,57,80.3,113.1,120.5,169.8C552.6,618.8,592.4,562.7,632.7,505.9z"/>
	<path class="st0" d="M765.8,789.8c-17.4,17.4-34.8,34.9-52.3,52.3c0-17.1,0-34.6,0-52.3C731.2,789.8,748.7,789.8,765.8,789.8z"/>
	<path class="st0" d="M632.7,505.9c-40.3,56.8-80.1,112.8-120.3,169.5c-40.2-56.6-80-112.8-120.5-169.8c2.5,0,3.9,0,5.4,0
		c20.5,0,41,0,61.5,0c16.2,0,26.4-10.3,26.4-26.5c0-46.8,0-93.6,0-140.4c0-1.7,0-3.3,0-5.3c1.8-0.1,3.2-0.3,4.6-0.3
		c15,0,30.1,0.1,45.1-0.1c4.1-0.1,5,1.3,4.9,5.1c-0.1,47.1-0.1,94.1-0.1,141.2c0,12.6,6.1,21.7,17,25c2.8,0.9,5.8,1.2,8.8,1.2
		c20.9,0.1,41.7,0,62.6,0.1C629.4,505.7,630.7,505.8,632.7,505.9z"/>
</g>
</svg>
