<?xml version="1.0" encoding="utf-8"?>
<!-- Generator: Adobe Illustrator 21.0.0, SVG Export Plug-In . SVG Version: 6.00 Build 0)  -->
<svg version="1.0" id="图层_1" xmlns="http://www.w3.org/2000/svg" xmlns:xlink="http://www.w3.org/1999/xlink" x="0px" y="0px"
	 viewBox="0 0 1024 1024" style="enable-background:new 0 0 1024 1024;" xml:space="preserve">
<style type="text/css">
	.st0{fill:#FFFFFF;}
</style>
<path class="st0" d="M601.6,871.9c-59.1,0-117.9,0-177.1,0c-0.1-1.6-0.3-3.1-0.3-4.6c0-16.6,0.1-33.2-0.1-49.9
	c0-3.7,0.8-5.2,4.1-5.2c56.5,0.1,113.1,0.1,169.6,0.1c2.1,0,4.1-0.3,4.1,3.7c-0.1,18-0.1,36-0.1,54
	C601.9,870.5,601.7,870.9,601.6,871.9z"/>
<g>
	<path d="M341.7,98.2c0.1,0.1,0.1,0.3,0.2,0.3c14,5,18.5,15.2,18.3,29.5c-0.4,42.1-0.1,84.3-0.2,126.4c0,12.3-6.9,21.7-18,24.5
		c-2.3,0.6-4.9,0.7-7.3,0.7c-35.8,0-71.6,0-107.4,0c-1.6,0-3.3,0-5.4,0c0,2.1,0,3.6,0,5.1c0,193.6,0,387.3-0.1,580.9
		c0,6.8,4.9,12,12.1,12.2c0.8,0,1.6,0,2.3,0c183.7,0,367.4,0,551.1,0c2.3,0,4.7-0.2,6.9-0.8c4.7-1.3,7.5-5,7.8-9.9
		c0.1-0.9,0.1-1.8,0.1-2.7c0-48.6,0-97.2,0-145.8c0-12.3,7.7-22.5,18.8-24.6c12.6-2.3,23.2,3.8,27.8,16.1c0.2,0.6,0.6,1,1,1.5
		c0,54.8,0,109.6,0,164.4c-0.3,0.5-0.8,1-0.9,1.6c-5.7,25.2-21.4,40.5-46.4,46.5c-2.1,0.5-4.2,1-6.2,1.5c-189.5,0-379,0-568.6,0
		c-0.8-0.3-1.6-0.8-2.4-0.9c-25-3.3-45.1-22.1-50.1-46.8c-0.2-0.9-0.7-1.8-1-2.7c0-208.4,0-416.8,0-625.2c2.9-4.3,5.1-9.3,8.7-12.8
		c36.4-35.6,72.9-71.2,109.8-106.4c12-11.5,22.2-25.1,37.4-32.8C333.9,98.2,337.8,98.2,341.7,98.2z M257.3,231.8
		c1.6,0.3,2.1,0.5,2.6,0.5c16.4,0,32.8,0,49.2,0.1c2.6,0,3.3-1.1,3.3-3.5c-0.1-15.6,0-31.3-0.1-46.9c0-0.8-0.2-1.6-0.5-3.1
		C293.5,196.6,275.7,213.9,257.3,231.8z"/>
	<path d="M849.7,596.9c-1.6,2.9-2.8,6.1-4.8,8.7c-6.5,8.6-16.9,11.7-26.9,8.2c-9.8-3.4-16-12.5-16-23.7c0-23.9,0.1-47.8,0.1-71.7
		c0-76.5,0-153,0-229.6c0-2.9,0-5.9,0-9.2c-2.4,0-4.2,0-5.9,0c-116.3,0-232.7,0-349,0c-11.5,0-20.6-6.9-23.4-17.6
		c-2.7-10.5,1.8-21.8,11.4-26.7c3.7-1.9,8.1-3,12.2-3.1c116.2-0.2,232.4-0.1,348.6-0.1c1.8,0,3.6,0,5.9,0c0-1.8,0-3.2,0-4.5
		c0-21.6-0.3-43.2,0.1-64.8c0.2-8.1-7.4-16.8-17-16.8c-112.5,0.2-224.9,0.1-337.4,0.1c-10.7,0-19.4-5.7-23.1-15.1
		c-4.9-12.5,1-26.2,13.5-31.2c1-0.4,1.9-1.1,2.9-1.6c118.9,0,237.9,0,356.8,0c1,0.3,1.9,0.8,2.9,0.9c22.8,3.6,41.8,21,47.4,43.3
		c0.5,1.8,1.1,3.6,1.7,5.4C849.7,297.5,849.7,447.2,849.7,596.9z"/>
	<path d="M392,533.2c-33,0-65.9,0-98.9,0c-12.8,0-21.9-7-24.6-18.7c-0.3-1.4-0.4-2.8-0.4-4.2c0-35.5,0-71.1,0-106.6
		c0-12.5,10.4-22.9,22.9-22.9c67.3,0,134.7,0,202,0c12.4,0,22.9,10.1,22.9,22.5c0.1,35.8,0.1,71.6,0,107.4c0,12-9.8,22.3-21.7,22.4
		c-23.1,0.3-46.3,0.2-69.4,0.2C414,533.3,403,533.2,392,533.2z M316,485.3c1.5,0.1,2.7,0.2,4,0.2c48.2,0,96.4,0,144.5,0.1
		c3.4,0,4.4-0.9,4.4-4.3c-0.2-16.3-0.2-32.5,0-48.8c0-3.5-1.2-4.3-4.5-4.3c-48.2,0.1-96.4,0.1-144.5,0.1c-1.3,0-2.7,0.2-3.9,0.2
		C316,447.7,316,466.4,316,485.3z"/>
	<path d="M392.5,633.6c33.3,0,66.7,0,100,0c13.4,0,23.6,10,23.6,23.4c0,35.3,0.1,70.6,0,105.9c0,12.7-9.6,22.6-22.3,23.2
		c-1.2,0.1-2.3,0.1-3.5,0.1c-65.5,0-131.1-0.1-196.6,0.1c-14.6,0.1-23.3-9.5-25.1-18.6c-0.3-1.5-0.4-3.1-0.4-4.6
		c0-35.5,0-71.1,0-106.6c0-12.3,10.5-22.8,22.7-22.8C324.8,633.5,358.6,633.6,392.5,633.6z M316,738.2c1.4,0.1,2.3,0.2,3.2,0.2
		c48.6,0,97.2,0,145.8,0.1c3.2,0,3.9-1.1,3.9-4c-0.1-16.3-0.1-32.6,0-48.9c0-3.6-1-4.6-4.6-4.6c-48.1,0.1-96.2,0.1-144.2,0.1
		c-1.4,0-2.7,0.2-4.1,0.2C316,700.5,316,719.2,316,738.2z"/>
	<path d="M640.7,468.7c13.9-14,27.5-27.6,41.1-41.2c11-11.1,22-22.2,33.2-33.1c12.9-12.5,34.3-7.1,39.5,9.8
		c2.8,9.1,0.8,17.3-5.8,23.9c-30.4,30.6-61,61.1-91.5,91.6c-8.9,8.8-23.2,9.4-32.2,0.7c-13.7-13-27.1-26.3-40.1-39.9
		c-9.3-9.8-8.5-24,1.1-33.4c9.2-8.9,23.4-8.9,33.2,0.3c6.2,5.9,12.1,12,18.1,18C638.3,466.4,639.3,467.3,640.7,468.7z"/>
	<path d="M641.2,722c1.1-1.5,1.9-2.9,3-4c23.5-23.5,46.9-47,70.4-70.4c7.3-7.2,17.9-9.2,26.8-5.2c9,4.1,14.7,13,14.3,22.9
		c-0.3,6-2.5,11.3-6.8,15.6c-30.6,30.6-61.2,61.3-91.8,91.8c-8.7,8.6-23.1,9.2-32,0.7c-13.7-13.1-27.2-26.5-40.3-40.2
		c-9.1-9.5-8.3-23.6,0.8-32.8c8.9-9,22.8-9.5,32.5-0.9c6.6,5.9,12.7,12.5,19.1,18.7C638.2,719.2,639.4,720.2,641.2,722z"/>
	<path class="st0" d="M257.3,231.8c18.4-17.9,36.3-35.2,54.6-52.9c0.2,1.4,0.5,2.2,0.5,3.1c0,15.6,0,31.3,0.1,46.9
		c0,2.4-0.7,3.5-3.3,3.5c-16.4-0.1-32.8,0-49.2-0.1C259.4,232.3,258.9,232.1,257.3,231.8z"/>
	<path class="st0" d="M316,485.3c0-18.9,0-37.6,0-56.8c1.2-0.1,2.6-0.2,3.9-0.2c48.2,0,96.4,0,144.5-0.1c3.3,0,4.5,0.8,4.5,4.3
		c-0.2,16.3-0.2,32.5,0,48.8c0,3.4-1,4.4-4.4,4.3c-48.2-0.1-96.4-0.1-144.5-0.1C318.7,485.5,317.5,485.4,316,485.3z"/>
	<path class="st0" d="M316,738.2c0-19,0-37.7,0-56.9c1.4-0.1,2.7-0.2,4.1-0.2c48.1,0,96.2,0,144.2-0.1c3.6,0,4.6,1,4.6,4.6
		c-0.2,16.3-0.1,32.6,0,48.9c0,2.9-0.7,4-3.9,4c-48.6-0.1-97.2-0.1-145.8-0.1C318.3,738.4,317.4,738.3,316,738.2z"/>
</g>
</svg>
