<?xml version="1.0" encoding="utf-8"?>
<!-- Generator: Adobe Illustrator 21.0.0, SVG Export Plug-In . SVG Version: 6.00 Build 0)  -->
<svg version="1.0" id="图层_1" xmlns="http://www.w3.org/2000/svg" xmlns:xlink="http://www.w3.org/1999/xlink" x="0px" y="0px"
	 viewBox="0 0 1024 1024" style="enable-background:new 0 0 1024 1024;" xml:space="preserve">
<style type="text/css">
	.st0{fill:#FFFFFF;}
</style>
<g>
	<path d="M924.2,746.8c-2,3.3-3.6,6.9-6,9.8c-5.1,6.2-12.1,8.4-20,8.4c-71.6-0.1-143.3,0-214.9,0c-10.3,0-20.7,0-31,0
		c-15.3-0.1-25.8-10.6-25.8-25.9c0-45.6,0.1-91.3,0-136.9c0-16.5,13-26.2,26.1-26.1c72.2,0.3,144.3,0.1,216.5,0.1
		c5.7,0,5.7,0,5.7-5.6c0-35.3,0-70.6,0-105.9c0-15-9.4-24.4-24.5-24.4c-151.8,0-303.6,0-455.4,0.2c-10.7,0-18.7-3.4-25.6-11.6
		c-24.5-29-49.5-57.7-74.1-86.6c-2.8-3.2-5.5-4.6-9.8-4.5c-36.7,0.2-73.5,0.4-110.2-0.1c-10.8-0.1-23.5,7.8-23.7,23.3
		c0,0.8,0,1.6,0,2.3c0,162.4,0,324.8,0,487.2c0,9.6,2.9,17.8,11.7,22.4c3.5,1.8,7.9,2.8,11.8,2.8c136.2,0.1,272.3,0.1,408.5,0.1
		c88.7,0,177.4,0,266.1,0c7.3,0,14.1,1.5,19.6,6.7c7.4,6.9,10.2,17.6,6.4,27c-3.9,9.9-11.5,15.3-22.2,16c-1.4,0.1-2.8,0-4.3,0
		c-224.6,0-449.2,0-673.8,0c-36.3,0-64.9-23.5-72.1-59.1c-0.5-2.4-0.9-4.8-1.4-7.1c0-168.4,0-336.7,0-505.1c0.3-1.2,0.7-2.5,0.9-3.7
		c3.4-28.9,25.7-54.5,54.3-60.3c11-2.2,22.6-1.6,33.9-2.3c1.9-0.1,3.7-0.2,5.8-0.3c0-2,0-3.5,0-5.1c0-38.9,0-77.8,0-116.8
		c0-29.6,19.8-56.2,48.3-64.5c4.7-1.4,9.5-2.1,14.3-3.1c169.4,0,338.8,0,508.2,0c2.1,0.4,4.3,0.8,6.4,1.2
		c33.7,6.7,55.9,33.9,55.9,68.2c0,22.1,0,44.2,0,66.3c0,20.3,0.1,40.6,0,60.9c-0.1,16.1-13.6,27.2-29.3,24.5
		c-11.9-2.1-20.1-12-20.1-24.4c-0.1-25.1,0-50.2,0-75.2c0-16.8,0.1-33.6,0-50.4c-0.1-14.3-7.3-21.4-21.6-21.4
		c-15.8,0-31.5,0.1-47.3-0.1c-3.7,0-4.8,1-4.8,4.7c0.1,77.9,0.1,155.9,0.1,233.8c0,1.4,0.1,2.7,0.2,4.5c2,0,3.7,0,5.3,0
		c46.8,0,93.6,0,140.4,0c32.6,0,60.8,21.7,69.3,53.4c0.8,3.1,1.5,6.2,2.3,9.3C924.2,551.3,924.2,649.1,924.2,746.8z M657,390.9
		c0.1-2.1,0.2-3.4,0.2-4.8c0-77.8,0-155.7,0.1-233.5c0-3.6-0.8-4.9-4.7-4.9c-128.8,0.1-257.6,0.1-386.4,0.1
		c-12.4,0-20.3,8-20.3,20.4c0,38.5,0,77.1-0.1,115.6c0,3.6,1.1,4.6,4.6,4.6c17.3-0.2,34.7,0,52-0.1c7.9,0,14.3,2.9,19.4,8.8
		c25.9,30.2,51.9,60.4,77.7,90.6c1.9,2.3,3.8,3.2,6.9,3.2c82-0.1,164-0.1,245.9-0.1C653.7,390.9,655.1,390.9,657,390.9z M874.7,715
		c0.1-1.6,0.2-3,0.2-4.4c0-26.8-0.1-53.5,0.1-80.3c0-3.8-1.1-4.7-4.8-4.7c-63.1,0.1-126.1,0.1-189.2,0c-3.8,0-4.7,1.1-4.7,4.8
		c0.1,26.8,0.1,53.5,0.1,80.3c0,1.4,0.1,2.8,0.2,4.3C742.7,715,808.5,715,874.7,715z"/>
	<path class="st0" d="M874.7,715c-66.1,0-132,0-198.1,0c-0.1-1.6-0.2-2.9-0.2-4.3c0-26.8,0.1-53.5-0.1-80.3c0-3.7,1-4.8,4.7-4.8
		c63.1,0.1,126.1,0.1,189.2,0c3.7,0,4.8,0.9,4.8,4.7c-0.2,26.8-0.1,53.5-0.1,80.3C874.9,712,874.7,713.4,874.7,715z"/>
</g>
</svg>
