<?xml version="1.0" encoding="utf-8"?>
<!-- Generator: Adobe Illustrator 21.0.0, SVG Export Plug-In . SVG Version: 6.00 Build 0)  -->
<svg version="1.0" id="图层_1" xmlns="http://www.w3.org/2000/svg" xmlns:xlink="http://www.w3.org/1999/xlink" x="0px" y="0px"
	 viewBox="0 0 1024 1024" style="enable-background:new 0 0 1024 1024;" xml:space="preserve">
<path id="icon_approval" d="M819.3,202h-144v-17.5c-0.1-9.5-7.9-17.1-17.4-17h-56.2c-9.2-40.9-45.4-70.1-87.4-70.4h-0.7
	c-42.4-0.6-79.2,28.9-87.9,70.4h-56.2c-9.5-0.1-17.3,7.5-17.4,17V202h-144c-9.5-0.1-17.3,7.5-17.4,17v690.6
	c0.1,9.5,7.9,17.1,17.4,17h611c9.5,0.1,17.3-7.5,17.4-17V218.9c0.1-9.3-7.5-16.9-16.8-17C819.6,201.9,819.5,201.9,819.3,202z
	 M513.5,130.9c23.3,0.3,44,14.7,52.4,36.4H461.8C469.5,145.4,490.3,130.7,513.5,130.9L513.5,130.9z M387.1,201.3h253.5v35H387.1
	L387.1,201.3L387.1,201.3z M801.9,892.5H225.8V235.9h126.6v17.5c0.1,9.5,7.9,17.1,17.4,17H658c9.5,0.1,17.3-7.5,17.4-17v-17.5h126.6
	V892.5z M645.8,448.5L441.7,644l-59.9-57.3c-6.9-6.6-17.8-6.5-24.5,0.2c-6.6,6.4-6.7,17-0.2,23.6c0.1,0.1,0.3,0.3,0.4,0.4l72.1,69
	c3.3,3.2,7.6,4.9,12.2,4.9l0,0c4.6,0.1,8.9-1.7,12.2-4.9l216.2-207.3c6.7-6.3,6.9-16.9,0.6-23.6c-0.1-0.1-0.3-0.3-0.4-0.4
	C663.5,442,652.7,441.9,645.8,448.5L645.8,448.5z"/>
</svg>
