<?xml version="1.0" encoding="utf-8"?>
<!-- Generator: Adobe Illustrator 21.0.0, SVG Export Plug-In . SVG Version: 6.00 Build 0)  -->
<svg version="1.0" id="图层_1" xmlns="http://www.w3.org/2000/svg" xmlns:xlink="http://www.w3.org/1999/xlink" x="0px" y="0px"
	 viewBox="0 0 1024 1024" style="enable-background:new 0 0 1024 1024;" xml:space="preserve">
<path d="M923.8,459.8c-4.2,6.5-10.8,9.9-17.4,9.9c-4.4,0-8.9-1.5-12.7-4.7L513,152.3L132.3,465c-9.6,7.9-23.1,5.6-30.1-5.2
	c-7-10.8-4.9-25.9,4.7-33.8l393.4-323.2c7.6-6.2,17.9-6.2,25.5,0L919.2,426C928.8,433.9,930.9,449,923.8,459.8z M211.1,470.5
	c11.9,0,21.6,10.8,21.6,24.2v385.1h172.5V669.6c0-66.7,48.4-121,107.8-121c59.5,0,107.8,54.3,107.8,121v210.2h172.5V494.7
	c0-13.4,9.7-24.2,21.6-24.2c11.9,0,21.6,10.8,21.6,24.2V904c0,13.4-9.7,24.2-21.6,24.2H599.3c-11.3,0-20.6-9.8-21.5-22.3
	c-0.1-0.6-0.1-1.2-0.1-1.9V669.6c0-40-29-72.6-64.7-72.6c-35.7,0-64.7,32.6-64.7,72.6V904c0,0.7,0,1.3-0.1,1.9
	c-0.9,12.5-10.1,22.3-21.5,22.3H211.1c-11.9,0-21.6-10.8-21.6-24.2V494.7C189.5,481.4,199.2,470.5,211.1,470.5z"/>
</svg>
