<?xml version="1.0" encoding="utf-8"?>
<!-- Generator: Adobe Illustrator 21.0.0, SVG Export Plug-In . SVG Version: 6.00 Build 0)  -->
<svg version="1.0" id="图层_1" xmlns="http://www.w3.org/2000/svg" xmlns:xlink="http://www.w3.org/1999/xlink" x="0px" y="0px"
	 viewBox="0 0 1024 1024" style="enable-background:new 0 0 1024 1024;" xml:space="preserve">
<path id="icon_folder_wishlist" d="M835.8,734.4L835.8,734.4V112c0.5-7.1-4.7-13.2-11.8-13.8c-0.5,0-0.9,0-1.4,0H202.9
	c-7.1-0.2-13,5.4-13.2,12.4c0,0.5,0,0.9,0,1.4v802.2c-0.6,7.1,4.7,13.2,11.8,13.8c0.5,0,0.9,0,1.4,0h448.4c3.5,0.1,6.9-1.4,9.2-4.1
	L831.9,744c1.3-1.4,1.3-2.8,2.6-4.1v-1.4C835.5,737.3,836,735.9,835.8,734.4z M216.1,125.8h593.3v594.7H651.2
	c-7.1-0.2-13,5.4-13.2,12.4c0,0.5,0,0.9,0,1.4v166H216L216.1,125.8L216.1,125.8z M664.4,881V748.2H791l-63.3,66.4L664.4,881z
	 M321.6,291.8c3.5,0.1,6.9-1.4,9.2-4.1l79.1-83l-18.5-19.4l-69.9,73.3l-30.3-31.8l-18.5,19.4l39.5,41.5
	C314.6,290.4,318,291.9,321.6,291.8z M453.4,195h131.8v27.7H453.4V195z M453.4,264.2h290.1v27.7H453.4V264.2z M321.6,471.6
	c3.5,0.1,6.9-1.4,9.2-4.1l79.1-83l-18.5-19.4l-69.9,73.3l-30.3-31.8L272.8,426l39.5,41.5C314.6,470.2,318,471.7,321.6,471.6z
	 M453.4,374.8h131.8v27.7H453.4V374.8z M453.4,444h290.1v27.7H453.4V444z M321.6,651.4c3.5,0.1,6.9-1.4,9.2-4.1l79.1-83l-18.5-19.4
	l-69.9,73.3l-30.3-31.8l-18.5,19.4l39.5,41.5C314.6,650,318,651.5,321.6,651.4z M453.4,554.6h131.8v27.7H453.4V554.6z M453.4,623.8
	h290.1v27.7H453.4V623.8z M282,734.4h145v27.7H282V734.4z M282,803.5h263.7v27.7H282V803.5z"/>
</svg>
